%TF.GenerationSoftware,KiCad,Pcbnew,9.0.8*%
%TF.CreationDate,2026-04-17T15:33:15-04:00*%
%TF.ProjectId,control_board_2,636f6e74-726f-46c5-9f62-6f6172645f32,2*%
%TF.SameCoordinates,Original*%
%TF.FileFunction,Legend,Top*%
%TF.FilePolarity,Positive*%
%FSLAX46Y46*%
G04 Gerber Fmt 4.6, Leading zero omitted, Abs format (unit mm)*
G04 Created by KiCad (PCBNEW 9.0.8) date 2026-04-17 15:33:15*
%MOMM*%
%LPD*%
G01*
G04 APERTURE LIST*
%ADD10C,0.100000*%
%ADD11C,0.250000*%
%ADD12C,1.000000*%
%ADD13C,0.150000*%
%ADD14C,0.120000*%
G04 APERTURE END LIST*
D10*
X18000000Y-47000000D02*
X19100000Y-47000000D01*
X19500000Y-47000000D02*
X20600000Y-47000000D01*
X21000000Y-47000000D02*
X22100000Y-47000000D01*
X22500000Y-47000000D02*
X23600000Y-47000000D01*
X24000000Y-47000000D02*
X25100000Y-47000000D01*
X25500000Y-47000000D02*
X26600000Y-47000000D01*
X27000000Y-47000000D02*
X28100000Y-47000000D01*
X28500000Y-47000000D02*
X29600000Y-47000000D01*
X30000000Y-47000000D02*
X31100000Y-47000000D01*
X31500000Y-47000000D02*
X32600000Y-47000000D01*
X33000000Y-47000000D02*
X34100000Y-47000000D01*
X34500000Y-47000000D02*
X35600000Y-47000000D01*
X36000000Y-47000000D02*
X37100000Y-47000000D01*
X37500000Y-47000000D02*
X38600000Y-47000000D01*
X39000000Y-47000000D02*
X40100000Y-47000000D01*
X40500000Y-47000000D02*
X41600000Y-47000000D01*
X42000000Y-47000000D02*
X43100000Y-47000000D01*
X43500000Y-47000000D02*
X44600000Y-47000000D01*
X45000000Y-47000000D02*
X46100000Y-47000000D01*
X46500000Y-47000000D02*
X47000000Y-47000000D01*
X47000000Y-16000000D02*
X47000000Y-17100000D01*
X47000000Y-17500000D02*
X47000000Y-18600000D01*
X47000000Y-19000000D02*
X47000000Y-20100000D01*
X47000000Y-20500000D02*
X47000000Y-21600000D01*
X47000000Y-22000000D02*
X47000000Y-23100000D01*
X47000000Y-23500000D02*
X47000000Y-24600000D01*
X47000000Y-25000000D02*
X47000000Y-26100000D01*
X47000000Y-26500000D02*
X47000000Y-27600000D01*
X47000000Y-28000000D02*
X47000000Y-29100000D01*
X47000000Y-29500000D02*
X47000000Y-30600000D01*
X47000000Y-31000000D02*
X47000000Y-32100000D01*
X47000000Y-32500000D02*
X47000000Y-33600000D01*
X47000000Y-34000000D02*
X47000000Y-35100000D01*
X47000000Y-35500000D02*
X47000000Y-36600000D01*
X47000000Y-37000000D02*
X47000000Y-38100000D01*
X47000000Y-38500000D02*
X47000000Y-39600000D01*
X47000000Y-40000000D02*
X47000000Y-41100000D01*
X47000000Y-41500000D02*
X47000000Y-42600000D01*
X47000000Y-43000000D02*
X47000000Y-44100000D01*
X47000000Y-44500000D02*
X47000000Y-45600000D01*
X47000000Y-46000000D02*
X47000000Y-47000000D01*
X21714284Y-47790752D02*
X22095236Y-47790752D01*
X21857141Y-47457419D02*
X21857141Y-48314561D01*
X21857141Y-48314561D02*
X21904760Y-48409800D01*
X21904760Y-48409800D02*
X21999998Y-48457419D01*
X21999998Y-48457419D02*
X22095236Y-48457419D01*
X22428570Y-48457419D02*
X22428570Y-47457419D01*
X22857141Y-48457419D02*
X22857141Y-47933609D01*
X22857141Y-47933609D02*
X22809522Y-47838371D01*
X22809522Y-47838371D02*
X22714284Y-47790752D01*
X22714284Y-47790752D02*
X22571427Y-47790752D01*
X22571427Y-47790752D02*
X22476189Y-47838371D01*
X22476189Y-47838371D02*
X22428570Y-47885990D01*
X23333332Y-48457419D02*
X23333332Y-47790752D01*
X23333332Y-47457419D02*
X23285713Y-47505038D01*
X23285713Y-47505038D02*
X23333332Y-47552657D01*
X23333332Y-47552657D02*
X23380951Y-47505038D01*
X23380951Y-47505038D02*
X23333332Y-47457419D01*
X23333332Y-47457419D02*
X23333332Y-47552657D01*
X23761903Y-48409800D02*
X23857141Y-48457419D01*
X23857141Y-48457419D02*
X24047617Y-48457419D01*
X24047617Y-48457419D02*
X24142855Y-48409800D01*
X24142855Y-48409800D02*
X24190474Y-48314561D01*
X24190474Y-48314561D02*
X24190474Y-48266942D01*
X24190474Y-48266942D02*
X24142855Y-48171704D01*
X24142855Y-48171704D02*
X24047617Y-48124085D01*
X24047617Y-48124085D02*
X23904760Y-48124085D01*
X23904760Y-48124085D02*
X23809522Y-48076466D01*
X23809522Y-48076466D02*
X23761903Y-47981228D01*
X23761903Y-47981228D02*
X23761903Y-47933609D01*
X23761903Y-47933609D02*
X23809522Y-47838371D01*
X23809522Y-47838371D02*
X23904760Y-47790752D01*
X23904760Y-47790752D02*
X24047617Y-47790752D01*
X24047617Y-47790752D02*
X24142855Y-47838371D01*
X25333332Y-48409800D02*
X25428570Y-48457419D01*
X25428570Y-48457419D02*
X25619046Y-48457419D01*
X25619046Y-48457419D02*
X25714284Y-48409800D01*
X25714284Y-48409800D02*
X25761903Y-48314561D01*
X25761903Y-48314561D02*
X25761903Y-48266942D01*
X25761903Y-48266942D02*
X25714284Y-48171704D01*
X25714284Y-48171704D02*
X25619046Y-48124085D01*
X25619046Y-48124085D02*
X25476189Y-48124085D01*
X25476189Y-48124085D02*
X25380951Y-48076466D01*
X25380951Y-48076466D02*
X25333332Y-47981228D01*
X25333332Y-47981228D02*
X25333332Y-47933609D01*
X25333332Y-47933609D02*
X25380951Y-47838371D01*
X25380951Y-47838371D02*
X25476189Y-47790752D01*
X25476189Y-47790752D02*
X25619046Y-47790752D01*
X25619046Y-47790752D02*
X25714284Y-47838371D01*
X26190475Y-48457419D02*
X26190475Y-47790752D01*
X26190475Y-47457419D02*
X26142856Y-47505038D01*
X26142856Y-47505038D02*
X26190475Y-47552657D01*
X26190475Y-47552657D02*
X26238094Y-47505038D01*
X26238094Y-47505038D02*
X26190475Y-47457419D01*
X26190475Y-47457419D02*
X26190475Y-47552657D01*
X27095236Y-48457419D02*
X27095236Y-47457419D01*
X27095236Y-48409800D02*
X26999998Y-48457419D01*
X26999998Y-48457419D02*
X26809522Y-48457419D01*
X26809522Y-48457419D02*
X26714284Y-48409800D01*
X26714284Y-48409800D02*
X26666665Y-48362180D01*
X26666665Y-48362180D02*
X26619046Y-48266942D01*
X26619046Y-48266942D02*
X26619046Y-47981228D01*
X26619046Y-47981228D02*
X26666665Y-47885990D01*
X26666665Y-47885990D02*
X26714284Y-47838371D01*
X26714284Y-47838371D02*
X26809522Y-47790752D01*
X26809522Y-47790752D02*
X26999998Y-47790752D01*
X26999998Y-47790752D02*
X27095236Y-47838371D01*
X27952379Y-48409800D02*
X27857141Y-48457419D01*
X27857141Y-48457419D02*
X27666665Y-48457419D01*
X27666665Y-48457419D02*
X27571427Y-48409800D01*
X27571427Y-48409800D02*
X27523808Y-48314561D01*
X27523808Y-48314561D02*
X27523808Y-47933609D01*
X27523808Y-47933609D02*
X27571427Y-47838371D01*
X27571427Y-47838371D02*
X27666665Y-47790752D01*
X27666665Y-47790752D02*
X27857141Y-47790752D01*
X27857141Y-47790752D02*
X27952379Y-47838371D01*
X27952379Y-47838371D02*
X27999998Y-47933609D01*
X27999998Y-47933609D02*
X27999998Y-48028847D01*
X27999998Y-48028847D02*
X27523808Y-48124085D01*
X29142856Y-48409800D02*
X29238094Y-48457419D01*
X29238094Y-48457419D02*
X29428570Y-48457419D01*
X29428570Y-48457419D02*
X29523808Y-48409800D01*
X29523808Y-48409800D02*
X29571427Y-48314561D01*
X29571427Y-48314561D02*
X29571427Y-48266942D01*
X29571427Y-48266942D02*
X29523808Y-48171704D01*
X29523808Y-48171704D02*
X29428570Y-48124085D01*
X29428570Y-48124085D02*
X29285713Y-48124085D01*
X29285713Y-48124085D02*
X29190475Y-48076466D01*
X29190475Y-48076466D02*
X29142856Y-47981228D01*
X29142856Y-47981228D02*
X29142856Y-47933609D01*
X29142856Y-47933609D02*
X29190475Y-47838371D01*
X29190475Y-47838371D02*
X29285713Y-47790752D01*
X29285713Y-47790752D02*
X29428570Y-47790752D01*
X29428570Y-47790752D02*
X29523808Y-47838371D01*
X29999999Y-48457419D02*
X29999999Y-47457419D01*
X30428570Y-48457419D02*
X30428570Y-47933609D01*
X30428570Y-47933609D02*
X30380951Y-47838371D01*
X30380951Y-47838371D02*
X30285713Y-47790752D01*
X30285713Y-47790752D02*
X30142856Y-47790752D01*
X30142856Y-47790752D02*
X30047618Y-47838371D01*
X30047618Y-47838371D02*
X29999999Y-47885990D01*
X31047618Y-48457419D02*
X30952380Y-48409800D01*
X30952380Y-48409800D02*
X30904761Y-48362180D01*
X30904761Y-48362180D02*
X30857142Y-48266942D01*
X30857142Y-48266942D02*
X30857142Y-47981228D01*
X30857142Y-47981228D02*
X30904761Y-47885990D01*
X30904761Y-47885990D02*
X30952380Y-47838371D01*
X30952380Y-47838371D02*
X31047618Y-47790752D01*
X31047618Y-47790752D02*
X31190475Y-47790752D01*
X31190475Y-47790752D02*
X31285713Y-47838371D01*
X31285713Y-47838371D02*
X31333332Y-47885990D01*
X31333332Y-47885990D02*
X31380951Y-47981228D01*
X31380951Y-47981228D02*
X31380951Y-48266942D01*
X31380951Y-48266942D02*
X31333332Y-48362180D01*
X31333332Y-48362180D02*
X31285713Y-48409800D01*
X31285713Y-48409800D02*
X31190475Y-48457419D01*
X31190475Y-48457419D02*
X31047618Y-48457419D01*
X32238094Y-47790752D02*
X32238094Y-48457419D01*
X31809523Y-47790752D02*
X31809523Y-48314561D01*
X31809523Y-48314561D02*
X31857142Y-48409800D01*
X31857142Y-48409800D02*
X31952380Y-48457419D01*
X31952380Y-48457419D02*
X32095237Y-48457419D01*
X32095237Y-48457419D02*
X32190475Y-48409800D01*
X32190475Y-48409800D02*
X32238094Y-48362180D01*
X32857142Y-48457419D02*
X32761904Y-48409800D01*
X32761904Y-48409800D02*
X32714285Y-48314561D01*
X32714285Y-48314561D02*
X32714285Y-47457419D01*
X33666666Y-48457419D02*
X33666666Y-47457419D01*
X33666666Y-48409800D02*
X33571428Y-48457419D01*
X33571428Y-48457419D02*
X33380952Y-48457419D01*
X33380952Y-48457419D02*
X33285714Y-48409800D01*
X33285714Y-48409800D02*
X33238095Y-48362180D01*
X33238095Y-48362180D02*
X33190476Y-48266942D01*
X33190476Y-48266942D02*
X33190476Y-47981228D01*
X33190476Y-47981228D02*
X33238095Y-47885990D01*
X33238095Y-47885990D02*
X33285714Y-47838371D01*
X33285714Y-47838371D02*
X33380952Y-47790752D01*
X33380952Y-47790752D02*
X33571428Y-47790752D01*
X33571428Y-47790752D02*
X33666666Y-47838371D01*
X34761905Y-47790752D02*
X35142857Y-47790752D01*
X34904762Y-48457419D02*
X34904762Y-47600276D01*
X34904762Y-47600276D02*
X34952381Y-47505038D01*
X34952381Y-47505038D02*
X35047619Y-47457419D01*
X35047619Y-47457419D02*
X35142857Y-47457419D01*
X35904762Y-48457419D02*
X35904762Y-47933609D01*
X35904762Y-47933609D02*
X35857143Y-47838371D01*
X35857143Y-47838371D02*
X35761905Y-47790752D01*
X35761905Y-47790752D02*
X35571429Y-47790752D01*
X35571429Y-47790752D02*
X35476191Y-47838371D01*
X35904762Y-48409800D02*
X35809524Y-48457419D01*
X35809524Y-48457419D02*
X35571429Y-48457419D01*
X35571429Y-48457419D02*
X35476191Y-48409800D01*
X35476191Y-48409800D02*
X35428572Y-48314561D01*
X35428572Y-48314561D02*
X35428572Y-48219323D01*
X35428572Y-48219323D02*
X35476191Y-48124085D01*
X35476191Y-48124085D02*
X35571429Y-48076466D01*
X35571429Y-48076466D02*
X35809524Y-48076466D01*
X35809524Y-48076466D02*
X35904762Y-48028847D01*
X36809524Y-48409800D02*
X36714286Y-48457419D01*
X36714286Y-48457419D02*
X36523810Y-48457419D01*
X36523810Y-48457419D02*
X36428572Y-48409800D01*
X36428572Y-48409800D02*
X36380953Y-48362180D01*
X36380953Y-48362180D02*
X36333334Y-48266942D01*
X36333334Y-48266942D02*
X36333334Y-47981228D01*
X36333334Y-47981228D02*
X36380953Y-47885990D01*
X36380953Y-47885990D02*
X36428572Y-47838371D01*
X36428572Y-47838371D02*
X36523810Y-47790752D01*
X36523810Y-47790752D02*
X36714286Y-47790752D01*
X36714286Y-47790752D02*
X36809524Y-47838371D01*
X37619048Y-48409800D02*
X37523810Y-48457419D01*
X37523810Y-48457419D02*
X37333334Y-48457419D01*
X37333334Y-48457419D02*
X37238096Y-48409800D01*
X37238096Y-48409800D02*
X37190477Y-48314561D01*
X37190477Y-48314561D02*
X37190477Y-47933609D01*
X37190477Y-47933609D02*
X37238096Y-47838371D01*
X37238096Y-47838371D02*
X37333334Y-47790752D01*
X37333334Y-47790752D02*
X37523810Y-47790752D01*
X37523810Y-47790752D02*
X37619048Y-47838371D01*
X37619048Y-47838371D02*
X37666667Y-47933609D01*
X37666667Y-47933609D02*
X37666667Y-48028847D01*
X37666667Y-48028847D02*
X37190477Y-48124085D01*
X38714287Y-47790752D02*
X39095239Y-47790752D01*
X38857144Y-47457419D02*
X38857144Y-48314561D01*
X38857144Y-48314561D02*
X38904763Y-48409800D01*
X38904763Y-48409800D02*
X39000001Y-48457419D01*
X39000001Y-48457419D02*
X39095239Y-48457419D01*
X39428573Y-48457419D02*
X39428573Y-47457419D01*
X39857144Y-48457419D02*
X39857144Y-47933609D01*
X39857144Y-47933609D02*
X39809525Y-47838371D01*
X39809525Y-47838371D02*
X39714287Y-47790752D01*
X39714287Y-47790752D02*
X39571430Y-47790752D01*
X39571430Y-47790752D02*
X39476192Y-47838371D01*
X39476192Y-47838371D02*
X39428573Y-47885990D01*
X40714287Y-48409800D02*
X40619049Y-48457419D01*
X40619049Y-48457419D02*
X40428573Y-48457419D01*
X40428573Y-48457419D02*
X40333335Y-48409800D01*
X40333335Y-48409800D02*
X40285716Y-48314561D01*
X40285716Y-48314561D02*
X40285716Y-47933609D01*
X40285716Y-47933609D02*
X40333335Y-47838371D01*
X40333335Y-47838371D02*
X40428573Y-47790752D01*
X40428573Y-47790752D02*
X40619049Y-47790752D01*
X40619049Y-47790752D02*
X40714287Y-47838371D01*
X40714287Y-47838371D02*
X40761906Y-47933609D01*
X40761906Y-47933609D02*
X40761906Y-48028847D01*
X40761906Y-48028847D02*
X40285716Y-48124085D01*
X42380954Y-48409800D02*
X42285716Y-48457419D01*
X42285716Y-48457419D02*
X42095240Y-48457419D01*
X42095240Y-48457419D02*
X42000002Y-48409800D01*
X42000002Y-48409800D02*
X41952383Y-48362180D01*
X41952383Y-48362180D02*
X41904764Y-48266942D01*
X41904764Y-48266942D02*
X41904764Y-47981228D01*
X41904764Y-47981228D02*
X41952383Y-47885990D01*
X41952383Y-47885990D02*
X42000002Y-47838371D01*
X42000002Y-47838371D02*
X42095240Y-47790752D01*
X42095240Y-47790752D02*
X42285716Y-47790752D01*
X42285716Y-47790752D02*
X42380954Y-47838371D01*
X43238097Y-48457419D02*
X43238097Y-47933609D01*
X43238097Y-47933609D02*
X43190478Y-47838371D01*
X43190478Y-47838371D02*
X43095240Y-47790752D01*
X43095240Y-47790752D02*
X42904764Y-47790752D01*
X42904764Y-47790752D02*
X42809526Y-47838371D01*
X43238097Y-48409800D02*
X43142859Y-48457419D01*
X43142859Y-48457419D02*
X42904764Y-48457419D01*
X42904764Y-48457419D02*
X42809526Y-48409800D01*
X42809526Y-48409800D02*
X42761907Y-48314561D01*
X42761907Y-48314561D02*
X42761907Y-48219323D01*
X42761907Y-48219323D02*
X42809526Y-48124085D01*
X42809526Y-48124085D02*
X42904764Y-48076466D01*
X42904764Y-48076466D02*
X43142859Y-48076466D01*
X43142859Y-48076466D02*
X43238097Y-48028847D01*
X43714288Y-47790752D02*
X43714288Y-48790752D01*
X43714288Y-47838371D02*
X43809526Y-47790752D01*
X43809526Y-47790752D02*
X44000002Y-47790752D01*
X44000002Y-47790752D02*
X44095240Y-47838371D01*
X44095240Y-47838371D02*
X44142859Y-47885990D01*
X44142859Y-47885990D02*
X44190478Y-47981228D01*
X44190478Y-47981228D02*
X44190478Y-48266942D01*
X44190478Y-48266942D02*
X44142859Y-48362180D01*
X44142859Y-48362180D02*
X44095240Y-48409800D01*
X44095240Y-48409800D02*
X44000002Y-48457419D01*
X44000002Y-48457419D02*
X43809526Y-48457419D01*
X43809526Y-48457419D02*
X43714288Y-48409800D01*
D11*
X28321428Y-34473470D02*
X28321428Y-32973470D01*
X28321428Y-32973470D02*
X28821428Y-34044899D01*
X28821428Y-34044899D02*
X29321428Y-32973470D01*
X29321428Y-32973470D02*
X29321428Y-34473470D01*
X30035714Y-34473470D02*
X30035714Y-33473470D01*
X30035714Y-32973470D02*
X29964286Y-33044899D01*
X29964286Y-33044899D02*
X30035714Y-33116327D01*
X30035714Y-33116327D02*
X30107143Y-33044899D01*
X30107143Y-33044899D02*
X30035714Y-32973470D01*
X30035714Y-32973470D02*
X30035714Y-33116327D01*
X31392858Y-34402042D02*
X31250000Y-34473470D01*
X31250000Y-34473470D02*
X30964286Y-34473470D01*
X30964286Y-34473470D02*
X30821429Y-34402042D01*
X30821429Y-34402042D02*
X30750000Y-34330613D01*
X30750000Y-34330613D02*
X30678572Y-34187756D01*
X30678572Y-34187756D02*
X30678572Y-33759184D01*
X30678572Y-33759184D02*
X30750000Y-33616327D01*
X30750000Y-33616327D02*
X30821429Y-33544899D01*
X30821429Y-33544899D02*
X30964286Y-33473470D01*
X30964286Y-33473470D02*
X31250000Y-33473470D01*
X31250000Y-33473470D02*
X31392858Y-33544899D01*
X32035714Y-34473470D02*
X32035714Y-33473470D01*
X32035714Y-33759184D02*
X32107143Y-33616327D01*
X32107143Y-33616327D02*
X32178572Y-33544899D01*
X32178572Y-33544899D02*
X32321429Y-33473470D01*
X32321429Y-33473470D02*
X32464286Y-33473470D01*
X33178571Y-34473470D02*
X33035714Y-34402042D01*
X33035714Y-34402042D02*
X32964285Y-34330613D01*
X32964285Y-34330613D02*
X32892857Y-34187756D01*
X32892857Y-34187756D02*
X32892857Y-33759184D01*
X32892857Y-33759184D02*
X32964285Y-33616327D01*
X32964285Y-33616327D02*
X33035714Y-33544899D01*
X33035714Y-33544899D02*
X33178571Y-33473470D01*
X33178571Y-33473470D02*
X33392857Y-33473470D01*
X33392857Y-33473470D02*
X33535714Y-33544899D01*
X33535714Y-33544899D02*
X33607143Y-33616327D01*
X33607143Y-33616327D02*
X33678571Y-33759184D01*
X33678571Y-33759184D02*
X33678571Y-34187756D01*
X33678571Y-34187756D02*
X33607143Y-34330613D01*
X33607143Y-34330613D02*
X33535714Y-34402042D01*
X33535714Y-34402042D02*
X33392857Y-34473470D01*
X33392857Y-34473470D02*
X33178571Y-34473470D01*
X35392857Y-34402042D02*
X35607143Y-34473470D01*
X35607143Y-34473470D02*
X35964285Y-34473470D01*
X35964285Y-34473470D02*
X36107143Y-34402042D01*
X36107143Y-34402042D02*
X36178571Y-34330613D01*
X36178571Y-34330613D02*
X36250000Y-34187756D01*
X36250000Y-34187756D02*
X36250000Y-34044899D01*
X36250000Y-34044899D02*
X36178571Y-33902042D01*
X36178571Y-33902042D02*
X36107143Y-33830613D01*
X36107143Y-33830613D02*
X35964285Y-33759184D01*
X35964285Y-33759184D02*
X35678571Y-33687756D01*
X35678571Y-33687756D02*
X35535714Y-33616327D01*
X35535714Y-33616327D02*
X35464285Y-33544899D01*
X35464285Y-33544899D02*
X35392857Y-33402042D01*
X35392857Y-33402042D02*
X35392857Y-33259184D01*
X35392857Y-33259184D02*
X35464285Y-33116327D01*
X35464285Y-33116327D02*
X35535714Y-33044899D01*
X35535714Y-33044899D02*
X35678571Y-32973470D01*
X35678571Y-32973470D02*
X36035714Y-32973470D01*
X36035714Y-32973470D02*
X36250000Y-33044899D01*
X36892856Y-34473470D02*
X36892856Y-32973470D01*
X36892856Y-32973470D02*
X37249999Y-32973470D01*
X37249999Y-32973470D02*
X37464285Y-33044899D01*
X37464285Y-33044899D02*
X37607142Y-33187756D01*
X37607142Y-33187756D02*
X37678571Y-33330613D01*
X37678571Y-33330613D02*
X37749999Y-33616327D01*
X37749999Y-33616327D02*
X37749999Y-33830613D01*
X37749999Y-33830613D02*
X37678571Y-34116327D01*
X37678571Y-34116327D02*
X37607142Y-34259184D01*
X37607142Y-34259184D02*
X37464285Y-34402042D01*
X37464285Y-34402042D02*
X37249999Y-34473470D01*
X37249999Y-34473470D02*
X36892856Y-34473470D01*
X29071429Y-36459815D02*
X29785715Y-36459815D01*
X28928572Y-36888386D02*
X29428572Y-35388386D01*
X29428572Y-35388386D02*
X29928572Y-36888386D01*
X31071429Y-36888386D02*
X31071429Y-35388386D01*
X31071429Y-36816958D02*
X30928571Y-36888386D01*
X30928571Y-36888386D02*
X30642857Y-36888386D01*
X30642857Y-36888386D02*
X30500000Y-36816958D01*
X30500000Y-36816958D02*
X30428571Y-36745529D01*
X30428571Y-36745529D02*
X30357143Y-36602672D01*
X30357143Y-36602672D02*
X30357143Y-36174100D01*
X30357143Y-36174100D02*
X30428571Y-36031243D01*
X30428571Y-36031243D02*
X30500000Y-35959815D01*
X30500000Y-35959815D02*
X30642857Y-35888386D01*
X30642857Y-35888386D02*
X30928571Y-35888386D01*
X30928571Y-35888386D02*
X31071429Y-35959815D01*
X32428572Y-36888386D02*
X32428572Y-36102672D01*
X32428572Y-36102672D02*
X32357143Y-35959815D01*
X32357143Y-35959815D02*
X32214286Y-35888386D01*
X32214286Y-35888386D02*
X31928572Y-35888386D01*
X31928572Y-35888386D02*
X31785714Y-35959815D01*
X32428572Y-36816958D02*
X32285714Y-36888386D01*
X32285714Y-36888386D02*
X31928572Y-36888386D01*
X31928572Y-36888386D02*
X31785714Y-36816958D01*
X31785714Y-36816958D02*
X31714286Y-36674100D01*
X31714286Y-36674100D02*
X31714286Y-36531243D01*
X31714286Y-36531243D02*
X31785714Y-36388386D01*
X31785714Y-36388386D02*
X31928572Y-36316958D01*
X31928572Y-36316958D02*
X32285714Y-36316958D01*
X32285714Y-36316958D02*
X32428572Y-36245529D01*
X33142857Y-35888386D02*
X33142857Y-37388386D01*
X33142857Y-35959815D02*
X33285715Y-35888386D01*
X33285715Y-35888386D02*
X33571429Y-35888386D01*
X33571429Y-35888386D02*
X33714286Y-35959815D01*
X33714286Y-35959815D02*
X33785715Y-36031243D01*
X33785715Y-36031243D02*
X33857143Y-36174100D01*
X33857143Y-36174100D02*
X33857143Y-36602672D01*
X33857143Y-36602672D02*
X33785715Y-36745529D01*
X33785715Y-36745529D02*
X33714286Y-36816958D01*
X33714286Y-36816958D02*
X33571429Y-36888386D01*
X33571429Y-36888386D02*
X33285715Y-36888386D01*
X33285715Y-36888386D02*
X33142857Y-36816958D01*
X34285715Y-35888386D02*
X34857143Y-35888386D01*
X34500000Y-35388386D02*
X34500000Y-36674100D01*
X34500000Y-36674100D02*
X34571429Y-36816958D01*
X34571429Y-36816958D02*
X34714286Y-36888386D01*
X34714286Y-36888386D02*
X34857143Y-36888386D01*
X35928572Y-36816958D02*
X35785715Y-36888386D01*
X35785715Y-36888386D02*
X35500001Y-36888386D01*
X35500001Y-36888386D02*
X35357143Y-36816958D01*
X35357143Y-36816958D02*
X35285715Y-36674100D01*
X35285715Y-36674100D02*
X35285715Y-36102672D01*
X35285715Y-36102672D02*
X35357143Y-35959815D01*
X35357143Y-35959815D02*
X35500001Y-35888386D01*
X35500001Y-35888386D02*
X35785715Y-35888386D01*
X35785715Y-35888386D02*
X35928572Y-35959815D01*
X35928572Y-35959815D02*
X36000001Y-36102672D01*
X36000001Y-36102672D02*
X36000001Y-36245529D01*
X36000001Y-36245529D02*
X35285715Y-36388386D01*
X36642857Y-36888386D02*
X36642857Y-35888386D01*
X36642857Y-36174100D02*
X36714286Y-36031243D01*
X36714286Y-36031243D02*
X36785715Y-35959815D01*
X36785715Y-35959815D02*
X36928572Y-35888386D01*
X36928572Y-35888386D02*
X37071429Y-35888386D01*
X32321428Y-19680928D02*
X32321428Y-18180928D01*
X32321428Y-18180928D02*
X32821428Y-19252357D01*
X32821428Y-19252357D02*
X33321428Y-18180928D01*
X33321428Y-18180928D02*
X33321428Y-19680928D01*
X34250000Y-19680928D02*
X34107143Y-19609500D01*
X34107143Y-19609500D02*
X34035714Y-19538071D01*
X34035714Y-19538071D02*
X33964286Y-19395214D01*
X33964286Y-19395214D02*
X33964286Y-18966642D01*
X33964286Y-18966642D02*
X34035714Y-18823785D01*
X34035714Y-18823785D02*
X34107143Y-18752357D01*
X34107143Y-18752357D02*
X34250000Y-18680928D01*
X34250000Y-18680928D02*
X34464286Y-18680928D01*
X34464286Y-18680928D02*
X34607143Y-18752357D01*
X34607143Y-18752357D02*
X34678572Y-18823785D01*
X34678572Y-18823785D02*
X34750000Y-18966642D01*
X34750000Y-18966642D02*
X34750000Y-19395214D01*
X34750000Y-19395214D02*
X34678572Y-19538071D01*
X34678572Y-19538071D02*
X34607143Y-19609500D01*
X34607143Y-19609500D02*
X34464286Y-19680928D01*
X34464286Y-19680928D02*
X34250000Y-19680928D01*
X36035715Y-19680928D02*
X36035715Y-18180928D01*
X36035715Y-19609500D02*
X35892857Y-19680928D01*
X35892857Y-19680928D02*
X35607143Y-19680928D01*
X35607143Y-19680928D02*
X35464286Y-19609500D01*
X35464286Y-19609500D02*
X35392857Y-19538071D01*
X35392857Y-19538071D02*
X35321429Y-19395214D01*
X35321429Y-19395214D02*
X35321429Y-18966642D01*
X35321429Y-18966642D02*
X35392857Y-18823785D01*
X35392857Y-18823785D02*
X35464286Y-18752357D01*
X35464286Y-18752357D02*
X35607143Y-18680928D01*
X35607143Y-18680928D02*
X35892857Y-18680928D01*
X35892857Y-18680928D02*
X36035715Y-18752357D01*
X37321429Y-19609500D02*
X37178572Y-19680928D01*
X37178572Y-19680928D02*
X36892858Y-19680928D01*
X36892858Y-19680928D02*
X36750000Y-19609500D01*
X36750000Y-19609500D02*
X36678572Y-19466642D01*
X36678572Y-19466642D02*
X36678572Y-18895214D01*
X36678572Y-18895214D02*
X36750000Y-18752357D01*
X36750000Y-18752357D02*
X36892858Y-18680928D01*
X36892858Y-18680928D02*
X37178572Y-18680928D01*
X37178572Y-18680928D02*
X37321429Y-18752357D01*
X37321429Y-18752357D02*
X37392858Y-18895214D01*
X37392858Y-18895214D02*
X37392858Y-19038071D01*
X37392858Y-19038071D02*
X36678572Y-19180928D01*
X39107143Y-19609500D02*
X39321429Y-19680928D01*
X39321429Y-19680928D02*
X39678571Y-19680928D01*
X39678571Y-19680928D02*
X39821429Y-19609500D01*
X39821429Y-19609500D02*
X39892857Y-19538071D01*
X39892857Y-19538071D02*
X39964286Y-19395214D01*
X39964286Y-19395214D02*
X39964286Y-19252357D01*
X39964286Y-19252357D02*
X39892857Y-19109500D01*
X39892857Y-19109500D02*
X39821429Y-19038071D01*
X39821429Y-19038071D02*
X39678571Y-18966642D01*
X39678571Y-18966642D02*
X39392857Y-18895214D01*
X39392857Y-18895214D02*
X39250000Y-18823785D01*
X39250000Y-18823785D02*
X39178571Y-18752357D01*
X39178571Y-18752357D02*
X39107143Y-18609500D01*
X39107143Y-18609500D02*
X39107143Y-18466642D01*
X39107143Y-18466642D02*
X39178571Y-18323785D01*
X39178571Y-18323785D02*
X39250000Y-18252357D01*
X39250000Y-18252357D02*
X39392857Y-18180928D01*
X39392857Y-18180928D02*
X39750000Y-18180928D01*
X39750000Y-18180928D02*
X39964286Y-18252357D01*
X40464285Y-18680928D02*
X40750000Y-19680928D01*
X40750000Y-19680928D02*
X41035714Y-18966642D01*
X41035714Y-18966642D02*
X41321428Y-19680928D01*
X41321428Y-19680928D02*
X41607142Y-18680928D01*
X42178571Y-19680928D02*
X42178571Y-18680928D01*
X42178571Y-18180928D02*
X42107143Y-18252357D01*
X42107143Y-18252357D02*
X42178571Y-18323785D01*
X42178571Y-18323785D02*
X42250000Y-18252357D01*
X42250000Y-18252357D02*
X42178571Y-18180928D01*
X42178571Y-18180928D02*
X42178571Y-18323785D01*
X42678572Y-18680928D02*
X43250000Y-18680928D01*
X42892857Y-18180928D02*
X42892857Y-19466642D01*
X42892857Y-19466642D02*
X42964286Y-19609500D01*
X42964286Y-19609500D02*
X43107143Y-19680928D01*
X43107143Y-19680928D02*
X43250000Y-19680928D01*
X44392858Y-19609500D02*
X44250000Y-19680928D01*
X44250000Y-19680928D02*
X43964286Y-19680928D01*
X43964286Y-19680928D02*
X43821429Y-19609500D01*
X43821429Y-19609500D02*
X43750000Y-19538071D01*
X43750000Y-19538071D02*
X43678572Y-19395214D01*
X43678572Y-19395214D02*
X43678572Y-18966642D01*
X43678572Y-18966642D02*
X43750000Y-18823785D01*
X43750000Y-18823785D02*
X43821429Y-18752357D01*
X43821429Y-18752357D02*
X43964286Y-18680928D01*
X43964286Y-18680928D02*
X44250000Y-18680928D01*
X44250000Y-18680928D02*
X44392858Y-18752357D01*
X45035714Y-19680928D02*
X45035714Y-18180928D01*
X45678572Y-19680928D02*
X45678572Y-18895214D01*
X45678572Y-18895214D02*
X45607143Y-18752357D01*
X45607143Y-18752357D02*
X45464286Y-18680928D01*
X45464286Y-18680928D02*
X45250000Y-18680928D01*
X45250000Y-18680928D02*
X45107143Y-18752357D01*
X45107143Y-18752357D02*
X45035714Y-18823785D01*
D12*
X186357140Y-175336095D02*
X183976188Y-175336095D01*
X183976188Y-175336095D02*
X183976188Y-170336095D01*
X188023807Y-172717047D02*
X189690473Y-172717047D01*
X190404759Y-175336095D02*
X188023807Y-175336095D01*
X188023807Y-175336095D02*
X188023807Y-170336095D01*
X188023807Y-170336095D02*
X190404759Y-170336095D01*
X192547617Y-175336095D02*
X192547617Y-170336095D01*
X192547617Y-170336095D02*
X193738093Y-170336095D01*
X193738093Y-170336095D02*
X194452379Y-170574190D01*
X194452379Y-170574190D02*
X194928569Y-171050380D01*
X194928569Y-171050380D02*
X195166664Y-171526571D01*
X195166664Y-171526571D02*
X195404760Y-172478952D01*
X195404760Y-172478952D02*
X195404760Y-173193238D01*
X195404760Y-173193238D02*
X195166664Y-174145619D01*
X195166664Y-174145619D02*
X194928569Y-174621809D01*
X194928569Y-174621809D02*
X194452379Y-175098000D01*
X194452379Y-175098000D02*
X193738093Y-175336095D01*
X193738093Y-175336095D02*
X192547617Y-175336095D01*
X201357141Y-175336095D02*
X201357141Y-170336095D01*
X201357141Y-170336095D02*
X203023807Y-173907523D01*
X203023807Y-173907523D02*
X204690474Y-170336095D01*
X204690474Y-170336095D02*
X204690474Y-175336095D01*
X209214284Y-175336095D02*
X209214284Y-172717047D01*
X209214284Y-172717047D02*
X208976189Y-172240857D01*
X208976189Y-172240857D02*
X208499998Y-172002761D01*
X208499998Y-172002761D02*
X207547617Y-172002761D01*
X207547617Y-172002761D02*
X207071427Y-172240857D01*
X209214284Y-175098000D02*
X208738093Y-175336095D01*
X208738093Y-175336095D02*
X207547617Y-175336095D01*
X207547617Y-175336095D02*
X207071427Y-175098000D01*
X207071427Y-175098000D02*
X206833331Y-174621809D01*
X206833331Y-174621809D02*
X206833331Y-174145619D01*
X206833331Y-174145619D02*
X207071427Y-173669428D01*
X207071427Y-173669428D02*
X207547617Y-173431333D01*
X207547617Y-173431333D02*
X208738093Y-173431333D01*
X208738093Y-173431333D02*
X209214284Y-173193238D01*
X210880951Y-172002761D02*
X212785713Y-172002761D01*
X211595237Y-170336095D02*
X211595237Y-174621809D01*
X211595237Y-174621809D02*
X211833332Y-175098000D01*
X211833332Y-175098000D02*
X212309522Y-175336095D01*
X212309522Y-175336095D02*
X212785713Y-175336095D01*
X214452380Y-175336095D02*
X214452380Y-172002761D01*
X214452380Y-172955142D02*
X214690475Y-172478952D01*
X214690475Y-172478952D02*
X214928570Y-172240857D01*
X214928570Y-172240857D02*
X215404761Y-172002761D01*
X215404761Y-172002761D02*
X215880951Y-172002761D01*
X217547618Y-175336095D02*
X217547618Y-172002761D01*
X217547618Y-170336095D02*
X217309522Y-170574190D01*
X217309522Y-170574190D02*
X217547618Y-170812285D01*
X217547618Y-170812285D02*
X217785713Y-170574190D01*
X217785713Y-170574190D02*
X217547618Y-170336095D01*
X217547618Y-170336095D02*
X217547618Y-170812285D01*
X219452379Y-175336095D02*
X222071427Y-172002761D01*
X219452379Y-172002761D02*
X222071427Y-175336095D01*
X230642856Y-174859904D02*
X230404760Y-175098000D01*
X230404760Y-175098000D02*
X229690475Y-175336095D01*
X229690475Y-175336095D02*
X229214284Y-175336095D01*
X229214284Y-175336095D02*
X228499998Y-175098000D01*
X228499998Y-175098000D02*
X228023808Y-174621809D01*
X228023808Y-174621809D02*
X227785713Y-174145619D01*
X227785713Y-174145619D02*
X227547617Y-173193238D01*
X227547617Y-173193238D02*
X227547617Y-172478952D01*
X227547617Y-172478952D02*
X227785713Y-171526571D01*
X227785713Y-171526571D02*
X228023808Y-171050380D01*
X228023808Y-171050380D02*
X228499998Y-170574190D01*
X228499998Y-170574190D02*
X229214284Y-170336095D01*
X229214284Y-170336095D02*
X229690475Y-170336095D01*
X229690475Y-170336095D02*
X230404760Y-170574190D01*
X230404760Y-170574190D02*
X230642856Y-170812285D01*
X233499998Y-175336095D02*
X233023808Y-175098000D01*
X233023808Y-175098000D02*
X232785713Y-174859904D01*
X232785713Y-174859904D02*
X232547617Y-174383714D01*
X232547617Y-174383714D02*
X232547617Y-172955142D01*
X232547617Y-172955142D02*
X232785713Y-172478952D01*
X232785713Y-172478952D02*
X233023808Y-172240857D01*
X233023808Y-172240857D02*
X233499998Y-172002761D01*
X233499998Y-172002761D02*
X234214284Y-172002761D01*
X234214284Y-172002761D02*
X234690475Y-172240857D01*
X234690475Y-172240857D02*
X234928570Y-172478952D01*
X234928570Y-172478952D02*
X235166665Y-172955142D01*
X235166665Y-172955142D02*
X235166665Y-174383714D01*
X235166665Y-174383714D02*
X234928570Y-174859904D01*
X234928570Y-174859904D02*
X234690475Y-175098000D01*
X234690475Y-175098000D02*
X234214284Y-175336095D01*
X234214284Y-175336095D02*
X233499998Y-175336095D01*
X237309523Y-172002761D02*
X237309523Y-175336095D01*
X237309523Y-172478952D02*
X237547618Y-172240857D01*
X237547618Y-172240857D02*
X238023808Y-172002761D01*
X238023808Y-172002761D02*
X238738094Y-172002761D01*
X238738094Y-172002761D02*
X239214285Y-172240857D01*
X239214285Y-172240857D02*
X239452380Y-172717047D01*
X239452380Y-172717047D02*
X239452380Y-175336095D01*
X241119047Y-172002761D02*
X243023809Y-172002761D01*
X241833333Y-170336095D02*
X241833333Y-174621809D01*
X241833333Y-174621809D02*
X242071428Y-175098000D01*
X242071428Y-175098000D02*
X242547618Y-175336095D01*
X242547618Y-175336095D02*
X243023809Y-175336095D01*
X244690476Y-175336095D02*
X244690476Y-172002761D01*
X244690476Y-172955142D02*
X244928571Y-172478952D01*
X244928571Y-172478952D02*
X245166666Y-172240857D01*
X245166666Y-172240857D02*
X245642857Y-172002761D01*
X245642857Y-172002761D02*
X246119047Y-172002761D01*
X248499999Y-175336095D02*
X248023809Y-175098000D01*
X248023809Y-175098000D02*
X247785714Y-174859904D01*
X247785714Y-174859904D02*
X247547618Y-174383714D01*
X247547618Y-174383714D02*
X247547618Y-172955142D01*
X247547618Y-172955142D02*
X247785714Y-172478952D01*
X247785714Y-172478952D02*
X248023809Y-172240857D01*
X248023809Y-172240857D02*
X248499999Y-172002761D01*
X248499999Y-172002761D02*
X249214285Y-172002761D01*
X249214285Y-172002761D02*
X249690476Y-172240857D01*
X249690476Y-172240857D02*
X249928571Y-172478952D01*
X249928571Y-172478952D02*
X250166666Y-172955142D01*
X250166666Y-172955142D02*
X250166666Y-174383714D01*
X250166666Y-174383714D02*
X249928571Y-174859904D01*
X249928571Y-174859904D02*
X249690476Y-175098000D01*
X249690476Y-175098000D02*
X249214285Y-175336095D01*
X249214285Y-175336095D02*
X248499999Y-175336095D01*
X253023809Y-175336095D02*
X252547619Y-175098000D01*
X252547619Y-175098000D02*
X252309524Y-174621809D01*
X252309524Y-174621809D02*
X252309524Y-170336095D01*
X260404762Y-172717047D02*
X261119048Y-172955142D01*
X261119048Y-172955142D02*
X261357143Y-173193238D01*
X261357143Y-173193238D02*
X261595239Y-173669428D01*
X261595239Y-173669428D02*
X261595239Y-174383714D01*
X261595239Y-174383714D02*
X261357143Y-174859904D01*
X261357143Y-174859904D02*
X261119048Y-175098000D01*
X261119048Y-175098000D02*
X260642858Y-175336095D01*
X260642858Y-175336095D02*
X258738096Y-175336095D01*
X258738096Y-175336095D02*
X258738096Y-170336095D01*
X258738096Y-170336095D02*
X260404762Y-170336095D01*
X260404762Y-170336095D02*
X260880953Y-170574190D01*
X260880953Y-170574190D02*
X261119048Y-170812285D01*
X261119048Y-170812285D02*
X261357143Y-171288476D01*
X261357143Y-171288476D02*
X261357143Y-171764666D01*
X261357143Y-171764666D02*
X261119048Y-172240857D01*
X261119048Y-172240857D02*
X260880953Y-172478952D01*
X260880953Y-172478952D02*
X260404762Y-172717047D01*
X260404762Y-172717047D02*
X258738096Y-172717047D01*
X264452381Y-175336095D02*
X263976191Y-175098000D01*
X263976191Y-175098000D02*
X263738096Y-174859904D01*
X263738096Y-174859904D02*
X263500000Y-174383714D01*
X263500000Y-174383714D02*
X263500000Y-172955142D01*
X263500000Y-172955142D02*
X263738096Y-172478952D01*
X263738096Y-172478952D02*
X263976191Y-172240857D01*
X263976191Y-172240857D02*
X264452381Y-172002761D01*
X264452381Y-172002761D02*
X265166667Y-172002761D01*
X265166667Y-172002761D02*
X265642858Y-172240857D01*
X265642858Y-172240857D02*
X265880953Y-172478952D01*
X265880953Y-172478952D02*
X266119048Y-172955142D01*
X266119048Y-172955142D02*
X266119048Y-174383714D01*
X266119048Y-174383714D02*
X265880953Y-174859904D01*
X265880953Y-174859904D02*
X265642858Y-175098000D01*
X265642858Y-175098000D02*
X265166667Y-175336095D01*
X265166667Y-175336095D02*
X264452381Y-175336095D01*
X270404763Y-175336095D02*
X270404763Y-172717047D01*
X270404763Y-172717047D02*
X270166668Y-172240857D01*
X270166668Y-172240857D02*
X269690477Y-172002761D01*
X269690477Y-172002761D02*
X268738096Y-172002761D01*
X268738096Y-172002761D02*
X268261906Y-172240857D01*
X270404763Y-175098000D02*
X269928572Y-175336095D01*
X269928572Y-175336095D02*
X268738096Y-175336095D01*
X268738096Y-175336095D02*
X268261906Y-175098000D01*
X268261906Y-175098000D02*
X268023810Y-174621809D01*
X268023810Y-174621809D02*
X268023810Y-174145619D01*
X268023810Y-174145619D02*
X268261906Y-173669428D01*
X268261906Y-173669428D02*
X268738096Y-173431333D01*
X268738096Y-173431333D02*
X269928572Y-173431333D01*
X269928572Y-173431333D02*
X270404763Y-173193238D01*
X272785716Y-175336095D02*
X272785716Y-172002761D01*
X272785716Y-172955142D02*
X273023811Y-172478952D01*
X273023811Y-172478952D02*
X273261906Y-172240857D01*
X273261906Y-172240857D02*
X273738097Y-172002761D01*
X273738097Y-172002761D02*
X274214287Y-172002761D01*
X278023811Y-175336095D02*
X278023811Y-170336095D01*
X278023811Y-175098000D02*
X277547620Y-175336095D01*
X277547620Y-175336095D02*
X276595239Y-175336095D01*
X276595239Y-175336095D02*
X276119049Y-175098000D01*
X276119049Y-175098000D02*
X275880954Y-174859904D01*
X275880954Y-174859904D02*
X275642858Y-174383714D01*
X275642858Y-174383714D02*
X275642858Y-172955142D01*
X275642858Y-172955142D02*
X275880954Y-172478952D01*
X275880954Y-172478952D02*
X276119049Y-172240857D01*
X276119049Y-172240857D02*
X276595239Y-172002761D01*
X276595239Y-172002761D02*
X277547620Y-172002761D01*
X277547620Y-172002761D02*
X278023811Y-172240857D01*
D10*
X20738095Y-44409800D02*
X20880952Y-44457419D01*
X20880952Y-44457419D02*
X21119047Y-44457419D01*
X21119047Y-44457419D02*
X21214285Y-44409800D01*
X21214285Y-44409800D02*
X21261904Y-44362180D01*
X21261904Y-44362180D02*
X21309523Y-44266942D01*
X21309523Y-44266942D02*
X21309523Y-44171704D01*
X21309523Y-44171704D02*
X21261904Y-44076466D01*
X21261904Y-44076466D02*
X21214285Y-44028847D01*
X21214285Y-44028847D02*
X21119047Y-43981228D01*
X21119047Y-43981228D02*
X20928571Y-43933609D01*
X20928571Y-43933609D02*
X20833333Y-43885990D01*
X20833333Y-43885990D02*
X20785714Y-43838371D01*
X20785714Y-43838371D02*
X20738095Y-43743133D01*
X20738095Y-43743133D02*
X20738095Y-43647895D01*
X20738095Y-43647895D02*
X20785714Y-43552657D01*
X20785714Y-43552657D02*
X20833333Y-43505038D01*
X20833333Y-43505038D02*
X20928571Y-43457419D01*
X20928571Y-43457419D02*
X21166666Y-43457419D01*
X21166666Y-43457419D02*
X21309523Y-43505038D01*
X21738095Y-44457419D02*
X21738095Y-43457419D01*
X21738095Y-43457419D02*
X21976190Y-43457419D01*
X21976190Y-43457419D02*
X22119047Y-43505038D01*
X22119047Y-43505038D02*
X22214285Y-43600276D01*
X22214285Y-43600276D02*
X22261904Y-43695514D01*
X22261904Y-43695514D02*
X22309523Y-43885990D01*
X22309523Y-43885990D02*
X22309523Y-44028847D01*
X22309523Y-44028847D02*
X22261904Y-44219323D01*
X22261904Y-44219323D02*
X22214285Y-44314561D01*
X22214285Y-44314561D02*
X22119047Y-44409800D01*
X22119047Y-44409800D02*
X21976190Y-44457419D01*
X21976190Y-44457419D02*
X21738095Y-44457419D01*
X23261904Y-44457419D02*
X22690476Y-44457419D01*
X22976190Y-44457419D02*
X22976190Y-43457419D01*
X22976190Y-43457419D02*
X22880952Y-43600276D01*
X22880952Y-43600276D02*
X22785714Y-43695514D01*
X22785714Y-43695514D02*
X22690476Y-43743133D01*
D13*
X24126667Y-17407200D02*
X24269524Y-17454819D01*
X24269524Y-17454819D02*
X24507619Y-17454819D01*
X24507619Y-17454819D02*
X24602857Y-17407200D01*
X24602857Y-17407200D02*
X24650476Y-17359580D01*
X24650476Y-17359580D02*
X24698095Y-17264342D01*
X24698095Y-17264342D02*
X24698095Y-17169104D01*
X24698095Y-17169104D02*
X24650476Y-17073866D01*
X24650476Y-17073866D02*
X24602857Y-17026247D01*
X24602857Y-17026247D02*
X24507619Y-16978628D01*
X24507619Y-16978628D02*
X24317143Y-16931009D01*
X24317143Y-16931009D02*
X24221905Y-16883390D01*
X24221905Y-16883390D02*
X24174286Y-16835771D01*
X24174286Y-16835771D02*
X24126667Y-16740533D01*
X24126667Y-16740533D02*
X24126667Y-16645295D01*
X24126667Y-16645295D02*
X24174286Y-16550057D01*
X24174286Y-16550057D02*
X24221905Y-16502438D01*
X24221905Y-16502438D02*
X24317143Y-16454819D01*
X24317143Y-16454819D02*
X24555238Y-16454819D01*
X24555238Y-16454819D02*
X24698095Y-16502438D01*
X25031429Y-16454819D02*
X25269524Y-17454819D01*
X25269524Y-17454819D02*
X25460000Y-16740533D01*
X25460000Y-16740533D02*
X25650476Y-17454819D01*
X25650476Y-17454819D02*
X25888572Y-16454819D01*
X26221905Y-16550057D02*
X26269524Y-16502438D01*
X26269524Y-16502438D02*
X26364762Y-16454819D01*
X26364762Y-16454819D02*
X26602857Y-16454819D01*
X26602857Y-16454819D02*
X26698095Y-16502438D01*
X26698095Y-16502438D02*
X26745714Y-16550057D01*
X26745714Y-16550057D02*
X26793333Y-16645295D01*
X26793333Y-16645295D02*
X26793333Y-16740533D01*
X26793333Y-16740533D02*
X26745714Y-16883390D01*
X26745714Y-16883390D02*
X26174286Y-17454819D01*
X26174286Y-17454819D02*
X26793333Y-17454819D01*
D10*
%TO.C,SD1*%
X25380000Y-29920000D02*
X25380000Y-42620000D01*
X25380000Y-29920000D02*
X40620000Y-29920000D01*
X40620000Y-29920000D02*
X40620000Y-42620000D01*
X40620000Y-42620000D02*
X40620000Y-29920000D01*
X45700000Y-45160000D02*
X20300000Y-45160000D01*
X20300000Y-22300000D01*
X45700000Y-22300000D01*
X45700000Y-45160000D01*
X25380000Y-42620000D02*
G75*
G02*
X40620000Y-42620000I7620000J-12699999D01*
G01*
%TO.C,SW2*%
D14*
X20350000Y-17640000D02*
X30570000Y-17640000D01*
X30570000Y-20360000D01*
X20350000Y-20360000D01*
X20350000Y-17640000D01*
%TD*%
M02*
