%TF.GenerationSoftware,KiCad,Pcbnew,9.0.8*%
%TF.CreationDate,2026-05-03T13:37:00-04:00*%
%TF.ProjectId,control_board_2b,636f6e74-726f-46c5-9f62-6f6172645f32,2*%
%TF.SameCoordinates,Original*%
%TF.FileFunction,Soldermask,Bot*%
%TF.FilePolarity,Negative*%
%FSLAX46Y46*%
G04 Gerber Fmt 4.6, Leading zero omitted, Abs format (unit mm)*
G04 Created by KiCad (PCBNEW 9.0.8) date 2026-05-03 13:37:00*
%MOMM*%
%LPD*%
G01*
G04 APERTURE LIST*
G04 Aperture macros list*
%AMRoundRect*
0 Rectangle with rounded corners*
0 $1 Rounding radius*
0 $2 $3 $4 $5 $6 $7 $8 $9 X,Y pos of 4 corners*
0 Add a 4 corners polygon primitive as box body*
4,1,4,$2,$3,$4,$5,$6,$7,$8,$9,$2,$3,0*
0 Add four circle primitives for the rounded corners*
1,1,$1+$1,$2,$3*
1,1,$1+$1,$4,$5*
1,1,$1+$1,$6,$7*
1,1,$1+$1,$8,$9*
0 Add four rect primitives between the rounded corners*
20,1,$1+$1,$2,$3,$4,$5,0*
20,1,$1+$1,$4,$5,$6,$7,0*
20,1,$1+$1,$6,$7,$8,$9,0*
20,1,$1+$1,$8,$9,$2,$3,0*%
%AMFreePoly0*
4,1,37,0.800000,0.796148,0.878414,0.796148,1.032228,0.765552,1.177117,0.705537,1.307515,0.618408,1.418408,0.507515,1.505537,0.377117,1.565552,0.232228,1.596148,0.078414,1.596148,-0.078414,1.565552,-0.232228,1.505537,-0.377117,1.418408,-0.507515,1.307515,-0.618408,1.177117,-0.705537,1.032228,-0.765552,0.878414,-0.796148,0.800000,-0.796148,0.800000,-0.800000,-1.400000,-0.800000,
-1.403843,-0.796157,-1.439018,-0.796157,-1.511114,-0.766294,-1.566294,-0.711114,-1.596157,-0.639018,-1.596157,-0.603843,-1.600000,-0.600000,-1.600000,0.600000,-1.596157,0.603843,-1.596157,0.639018,-1.566294,0.711114,-1.511114,0.766294,-1.439018,0.796157,-1.403843,0.796157,-1.400000,0.800000,0.800000,0.800000,0.800000,0.796148,0.800000,0.796148,$1*%
%AMFreePoly1*
4,1,37,1.403843,0.796157,1.439018,0.796157,1.511114,0.766294,1.566294,0.711114,1.596157,0.639018,1.596157,0.603843,1.600000,0.600000,1.600000,-0.600000,1.596157,-0.603843,1.596157,-0.639018,1.566294,-0.711114,1.511114,-0.766294,1.439018,-0.796157,1.403843,-0.796157,1.400000,-0.800000,-0.800000,-0.800000,-0.800000,-0.796148,-0.878414,-0.796148,-1.032228,-0.765552,-1.177117,-0.705537,
-1.307515,-0.618408,-1.418408,-0.507515,-1.505537,-0.377117,-1.565552,-0.232228,-1.596148,-0.078414,-1.596148,0.078414,-1.565552,0.232228,-1.505537,0.377117,-1.418408,0.507515,-1.307515,0.618408,-1.177117,0.705537,-1.032228,0.765552,-0.878414,0.796148,-0.800000,0.796148,-0.800000,0.800000,1.400000,0.800000,1.403843,0.796157,1.403843,0.796157,$1*%
%AMFreePoly2*
4,1,37,0.603843,0.796157,0.639018,0.796157,0.711114,0.766294,0.766294,0.711114,0.796157,0.639018,0.796157,0.603843,0.800000,0.600000,0.800000,-0.600000,0.796157,-0.603843,0.796157,-0.639018,0.766294,-0.711114,0.711114,-0.766294,0.639018,-0.796157,0.603843,-0.796157,0.600000,-0.800000,0.000000,-0.800000,0.000000,-0.796148,-0.078414,-0.796148,-0.232228,-0.765552,-0.377117,-0.705537,
-0.507515,-0.618408,-0.618408,-0.507515,-0.705537,-0.377117,-0.765552,-0.232228,-0.796148,-0.078414,-0.796148,0.078414,-0.765552,0.232228,-0.705537,0.377117,-0.618408,0.507515,-0.507515,0.618408,-0.377117,0.705537,-0.232228,0.765552,-0.078414,0.796148,0.000000,0.796148,0.000000,0.800000,0.600000,0.800000,0.603843,0.796157,0.603843,0.796157,$1*%
%AMFreePoly3*
4,1,37,0.000000,0.796148,0.078414,0.796148,0.232228,0.765552,0.377117,0.705537,0.507515,0.618408,0.618408,0.507515,0.705537,0.377117,0.765552,0.232228,0.796148,0.078414,0.796148,-0.078414,0.765552,-0.232228,0.705537,-0.377117,0.618408,-0.507515,0.507515,-0.618408,0.377117,-0.705537,0.232228,-0.765552,0.078414,-0.796148,0.000000,-0.796148,0.000000,-0.800000,-0.600000,-0.800000,
-0.603843,-0.796157,-0.639018,-0.796157,-0.711114,-0.766294,-0.766294,-0.711114,-0.796157,-0.639018,-0.796157,-0.603843,-0.800000,-0.600000,-0.800000,0.600000,-0.796157,0.603843,-0.796157,0.639018,-0.766294,0.711114,-0.711114,0.766294,-0.639018,0.796157,-0.603843,0.796157,-0.600000,0.800000,0.000000,0.800000,0.000000,0.796148,0.000000,0.796148,$1*%
G04 Aperture macros list end*
%ADD10C,1.700000*%
%ADD11C,3.200000*%
%ADD12R,1.500000X1.500000*%
%ADD13C,1.600000*%
%ADD14RoundRect,0.250001X1.099999X1.099999X-1.099999X1.099999X-1.099999X-1.099999X1.099999X-1.099999X0*%
%ADD15C,2.700000*%
%ADD16C,2.200000*%
%ADD17C,1.850000*%
%ADD18FreePoly0,180.000000*%
%ADD19RoundRect,0.200000X0.600000X0.600000X-0.600000X0.600000X-0.600000X-0.600000X0.600000X-0.600000X0*%
%ADD20RoundRect,0.800000X0.800000X0.000010X-0.800000X0.000010X-0.800000X-0.000010X0.800000X-0.000010X0*%
%ADD21FreePoly1,180.000000*%
%ADD22FreePoly2,180.000000*%
%ADD23FreePoly3,180.000000*%
%ADD24RoundRect,0.250000X0.600000X0.600000X-0.600000X0.600000X-0.600000X-0.600000X0.600000X-0.600000X0*%
G04 APERTURE END LIST*
D10*
%TO.C,SD2*%
X39160000Y-24380000D03*
X39160000Y-26920000D03*
X39160000Y-29460000D03*
X39160000Y-32000000D03*
X39160000Y-34540000D03*
X39160000Y-37080000D03*
X39160000Y-39620000D03*
%TD*%
D11*
%TO.C,REF\u002A\u002A*%
X99000000Y-67000000D03*
%TD*%
%TO.C,REF\u002A\u002A*%
X99000000Y-20000000D03*
%TD*%
%TO.C,REF\u002A\u002A*%
X22000000Y-67000000D03*
%TD*%
D12*
%TO.C,SW2*%
X25460000Y-19000000D03*
D13*
X22920000Y-19000000D03*
X28000000Y-19000000D03*
%TD*%
D14*
%TO.C,J1*%
X43940000Y-54225000D03*
D15*
X39980000Y-54225000D03*
X36020000Y-54225000D03*
X32060000Y-54225000D03*
%TD*%
D16*
%TO.C,A1*%
X64615000Y-19350000D03*
D17*
X64315000Y-22380000D03*
X59465000Y-22380000D03*
D16*
X59165000Y-19350000D03*
D18*
X71580000Y-19220000D03*
D19*
X70780000Y-19220000D03*
D20*
X71580000Y-21760000D03*
D13*
X70780000Y-21760000D03*
D21*
X71580000Y-24300000D03*
D22*
X70780000Y-24300000D03*
D20*
X71580000Y-26840000D03*
D13*
X70780000Y-26840000D03*
D20*
X71580000Y-29380000D03*
D13*
X70780000Y-29380000D03*
D20*
X71580000Y-31920000D03*
D13*
X70780000Y-31920000D03*
D20*
X71580000Y-34460000D03*
D13*
X70780000Y-34460000D03*
D21*
X71580000Y-37000000D03*
D22*
X70780000Y-37000000D03*
D20*
X71580000Y-39540000D03*
D13*
X70780000Y-39540000D03*
D20*
X71580000Y-42080000D03*
D13*
X70780000Y-42080000D03*
D20*
X71580000Y-44620000D03*
D13*
X70780000Y-44620000D03*
D20*
X71580000Y-47160000D03*
D13*
X70780000Y-47160000D03*
D21*
X71580000Y-49700000D03*
D22*
X70780000Y-49700000D03*
D20*
X71580000Y-52240000D03*
D13*
X70780000Y-52240000D03*
D20*
X71580000Y-54780000D03*
D13*
X70780000Y-54780000D03*
D20*
X71580000Y-57320000D03*
D13*
X70780000Y-57320000D03*
D20*
X71580000Y-59860000D03*
D13*
X70780000Y-59860000D03*
D21*
X71580000Y-62400000D03*
D22*
X70780000Y-62400000D03*
D20*
X71580000Y-64940000D03*
D13*
X70780000Y-64940000D03*
D20*
X71580000Y-67480000D03*
D13*
X70780000Y-67480000D03*
X53000000Y-67480000D03*
D20*
X52200000Y-67480000D03*
D13*
X53000000Y-64940000D03*
D20*
X52200000Y-64940000D03*
D23*
X53000000Y-62400000D03*
D18*
X52200000Y-62400000D03*
D13*
X53000000Y-59860000D03*
D20*
X52200000Y-59860000D03*
D13*
X53000000Y-57320000D03*
D20*
X52200000Y-57320000D03*
D13*
X53000000Y-54780000D03*
D20*
X52200000Y-54780000D03*
D13*
X53000000Y-52240000D03*
D20*
X52200000Y-52240000D03*
D23*
X53000000Y-49700000D03*
D18*
X52200000Y-49700000D03*
D13*
X53000000Y-47160000D03*
D20*
X52200000Y-47160000D03*
D13*
X53000000Y-44620000D03*
D20*
X52200000Y-44620000D03*
D13*
X53000000Y-42080000D03*
D20*
X52200000Y-42080000D03*
D13*
X53000000Y-39540000D03*
D20*
X52200000Y-39540000D03*
D23*
X53000000Y-37000000D03*
D18*
X52200000Y-37000000D03*
D13*
X53000000Y-34460000D03*
D20*
X52200000Y-34460000D03*
D13*
X53000000Y-31920000D03*
D20*
X52200000Y-31920000D03*
D13*
X53000000Y-29380000D03*
D20*
X52200000Y-29380000D03*
D13*
X53000000Y-26840000D03*
D20*
X52200000Y-26840000D03*
D23*
X53000000Y-24300000D03*
D18*
X52200000Y-24300000D03*
D13*
X53000000Y-21760000D03*
D20*
X52200000Y-21760000D03*
D13*
X53000000Y-19220000D03*
D20*
X52200000Y-19220000D03*
%TD*%
D24*
%TO.C,H2*%
X86000000Y-23460000D03*
D10*
X83460000Y-23460000D03*
X86000000Y-26000000D03*
X83460000Y-26000000D03*
X86000000Y-28540000D03*
X83460000Y-28540000D03*
X86000000Y-31080000D03*
X83460000Y-31080000D03*
X86000000Y-33620000D03*
X83460000Y-33620000D03*
X86000000Y-36160000D03*
X83460000Y-36160000D03*
X86000000Y-38700000D03*
X83460000Y-38700000D03*
X86000000Y-41240000D03*
X83460000Y-41240000D03*
%TD*%
M02*
