M48
; DRILL file {KiCad 9.0.8} date 2026-05-03T13:37:04-0400
; FORMAT={-:-/ absolute / metric / decimal}
; #@! TF.CreationDate,2026-05-03T13:37:04-04:00
; #@! TF.GenerationSoftware,Kicad,Pcbnew,9.0.8
; #@! TF.FileFunction,Plated,1,2,PTH
FMAT,2
METRIC
; #@! TA.AperFunction,Plated,PTH,ViaDrill
T1C0.300
; #@! TA.AperFunction,Plated,PTH,ComponentDrill
T2C0.800
; #@! TA.AperFunction,Plated,PTH,ComponentDrill
T3C1.000
; #@! TA.AperFunction,Plated,PTH,ComponentDrill
T4C1.700
%
G90
G05
T1
X43.0Y-49.0
X45.0Y-31.0
X45.0Y-51.0
X46.0Y-29.0
X46.0Y-64.0
X47.0Y-57.0
X48.0Y-32.0
X49.0Y-35.76
X75.0Y-38.0
X75.0Y-46.0
X79.0Y-46.0
X79.0Y-49.0
T2
X22.92Y-19.0
X25.46Y-19.0
X28.0Y-19.0
T3
X39.16Y-24.38
X39.16Y-26.92
X39.16Y-29.46
X39.16Y-32.0
X39.16Y-34.54
X39.16Y-37.08
X39.16Y-39.62
X53.0Y-19.22
X53.0Y-21.76
X53.0Y-24.3
X53.0Y-26.84
X53.0Y-29.38
X53.0Y-31.92
X53.0Y-34.46
X53.0Y-37.0
X53.0Y-39.54
X53.0Y-42.08
X53.0Y-44.62
X53.0Y-47.16
X53.0Y-49.7
X53.0Y-52.24
X53.0Y-54.78
X53.0Y-57.32
X53.0Y-59.86
X53.0Y-62.4
X53.0Y-64.94
X53.0Y-67.48
X70.78Y-19.22
X70.78Y-21.76
X70.78Y-24.3
X70.78Y-26.84
X70.78Y-29.38
X70.78Y-31.92
X70.78Y-34.46
X70.78Y-37.0
X70.78Y-39.54
X70.78Y-42.08
X70.78Y-44.62
X70.78Y-47.16
X70.78Y-49.7
X70.78Y-52.24
X70.78Y-54.78
X70.78Y-57.32
X70.78Y-59.86
X70.78Y-62.4
X70.78Y-64.94
X70.78Y-67.48
X83.46Y-23.46
X83.46Y-26.0
X83.46Y-28.54
X83.46Y-31.08
X83.46Y-33.62
X83.46Y-36.16
X83.46Y-38.7
X83.46Y-41.24
X86.0Y-23.46
X86.0Y-26.0
X86.0Y-28.54
X86.0Y-31.08
X86.0Y-33.62
X86.0Y-36.16
X86.0Y-38.7
X86.0Y-41.24
T4
X32.06Y-54.225
X36.02Y-54.225
X39.98Y-54.225
X43.94Y-54.225
M30
