M48
; DRILL file {KiCad 9.0.8} date 2026-04-17T15:42:07-0400
; FORMAT={-:-/ absolute / metric / decimal}
; #@! TF.CreationDate,2026-04-17T15:42:07-04:00
; #@! TF.GenerationSoftware,Kicad,Pcbnew,9.0.8
; #@! TF.FileFunction,Plated,1,2,PTH
FMAT,2
METRIC
; #@! TA.AperFunction,Plated,PTH,ViaDrill
T1C0.300
; #@! TA.AperFunction,Plated,PTH,ComponentDrill
T2C0.800
; #@! TA.AperFunction,Plated,PTH,ComponentDrill
T3C1.000
; #@! TA.AperFunction,Plated,PTH,ComponentDrill
T4C1.700
%
G90
G05
T1
X39.005Y-46.0
X39.005Y-49.0
X43.005Y-38.0
X43.005Y-46.0
T2
X88.92Y-37.0
X91.46Y-37.0
X94.0Y-37.0
T3
X32.005Y-23.46
X32.005Y-26.0
X32.005Y-28.54
X32.005Y-31.08
X32.005Y-33.62
X32.005Y-36.16
X32.005Y-38.7
X32.005Y-41.24
X34.545Y-23.46
X34.545Y-26.0
X34.545Y-28.54
X34.545Y-31.08
X34.545Y-33.62
X34.545Y-36.16
X34.545Y-38.7
X34.545Y-41.24
X47.225Y-19.22
X47.225Y-21.76
X47.225Y-24.3
X47.225Y-26.84
X47.225Y-29.38
X47.225Y-31.92
X47.225Y-34.46
X47.225Y-37.0
X47.225Y-39.54
X47.225Y-42.08
X47.225Y-44.62
X47.225Y-47.16
X47.225Y-49.7
X47.225Y-52.24
X47.225Y-54.78
X47.225Y-57.32
X47.225Y-59.86
X47.225Y-62.4
X47.225Y-64.94
X47.225Y-67.48
X65.005Y-19.22
X65.005Y-21.76
X65.005Y-24.3
X65.005Y-26.84
X65.005Y-29.38
X65.005Y-31.92
X65.005Y-34.46
X65.005Y-37.0
X65.005Y-39.54
X65.005Y-42.08
X65.005Y-44.62
X65.005Y-47.16
X65.005Y-49.7
X65.005Y-52.24
X65.005Y-54.78
X65.005Y-57.32
X65.005Y-59.86
X65.005Y-62.4
X65.005Y-64.94
X65.005Y-67.48
X76.475Y-45.65
X76.475Y-48.19
X76.475Y-50.73
X76.475Y-53.27
X76.475Y-55.81
X76.475Y-58.35
T4
X26.06Y-54.225
X30.02Y-54.225
X33.98Y-54.225
X37.94Y-54.225
M30
