%TF.GenerationSoftware,KiCad,Pcbnew,9.0.8*%
%TF.CreationDate,2026-04-17T15:42:05-04:00*%
%TF.ProjectId,control_board_67,636f6e74-726f-46c5-9f62-6f6172645f36,2*%
%TF.SameCoordinates,Original*%
%TF.FileFunction,Copper,L2,Bot*%
%TF.FilePolarity,Positive*%
%FSLAX46Y46*%
G04 Gerber Fmt 4.6, Leading zero omitted, Abs format (unit mm)*
G04 Created by KiCad (PCBNEW 9.0.8) date 2026-04-17 15:42:05*
%MOMM*%
%LPD*%
G01*
G04 APERTURE LIST*
G04 Aperture macros list*
%AMRoundRect*
0 Rectangle with rounded corners*
0 $1 Rounding radius*
0 $2 $3 $4 $5 $6 $7 $8 $9 X,Y pos of 4 corners*
0 Add a 4 corners polygon primitive as box body*
4,1,4,$2,$3,$4,$5,$6,$7,$8,$9,$2,$3,0*
0 Add four circle primitives for the rounded corners*
1,1,$1+$1,$2,$3*
1,1,$1+$1,$4,$5*
1,1,$1+$1,$6,$7*
1,1,$1+$1,$8,$9*
0 Add four rect primitives between the rounded corners*
20,1,$1+$1,$2,$3,$4,$5,0*
20,1,$1+$1,$4,$5,$6,$7,0*
20,1,$1+$1,$6,$7,$8,$9,0*
20,1,$1+$1,$8,$9,$2,$3,0*%
%AMFreePoly0*
4,1,37,0.603843,0.796157,0.639018,0.796157,0.711114,0.766294,0.766294,0.711114,0.796157,0.639018,0.796157,0.603843,0.800000,0.600000,0.800000,-0.600000,0.796157,-0.603843,0.796157,-0.639018,0.766294,-0.711114,0.711114,-0.766294,0.639018,-0.796157,0.603843,-0.796157,0.600000,-0.800000,0.000000,-0.800000,0.000000,-0.796148,-0.078414,-0.796148,-0.232228,-0.765552,-0.377117,-0.705537,
-0.507515,-0.618408,-0.618408,-0.507515,-0.705537,-0.377117,-0.765552,-0.232228,-0.796148,-0.078414,-0.796148,0.078414,-0.765552,0.232228,-0.705537,0.377117,-0.618408,0.507515,-0.507515,0.618408,-0.377117,0.705537,-0.232228,0.765552,-0.078414,0.796148,0.000000,0.796148,0.000000,0.800000,0.600000,0.800000,0.603843,0.796157,0.603843,0.796157,$1*%
%AMFreePoly1*
4,1,37,0.000000,0.796148,0.078414,0.796148,0.232228,0.765552,0.377117,0.705537,0.507515,0.618408,0.618408,0.507515,0.705537,0.377117,0.765552,0.232228,0.796148,0.078414,0.796148,-0.078414,0.765552,-0.232228,0.705537,-0.377117,0.618408,-0.507515,0.507515,-0.618408,0.377117,-0.705537,0.232228,-0.765552,0.078414,-0.796148,0.000000,-0.796148,0.000000,-0.800000,-0.600000,-0.800000,
-0.603843,-0.796157,-0.639018,-0.796157,-0.711114,-0.766294,-0.766294,-0.711114,-0.796157,-0.639018,-0.796157,-0.603843,-0.800000,-0.600000,-0.800000,0.600000,-0.796157,0.603843,-0.796157,0.639018,-0.766294,0.711114,-0.711114,0.766294,-0.639018,0.796157,-0.603843,0.796157,-0.600000,0.800000,0.000000,0.800000,0.000000,0.796148,0.000000,0.796148,$1*%
G04 Aperture macros list end*
%TA.AperFunction,ComponentPad*%
%ADD10RoundRect,0.250001X-1.099999X-1.099999X1.099999X-1.099999X1.099999X1.099999X-1.099999X1.099999X0*%
%TD*%
%TA.AperFunction,ComponentPad*%
%ADD11C,2.700000*%
%TD*%
%TA.AperFunction,ComponentPad*%
%ADD12RoundRect,0.200000X-0.600000X-0.600000X0.600000X-0.600000X0.600000X0.600000X-0.600000X0.600000X0*%
%TD*%
%TA.AperFunction,ComponentPad*%
%ADD13C,1.600000*%
%TD*%
%TA.AperFunction,ComponentPad*%
%ADD14FreePoly0,0.000000*%
%TD*%
%TA.AperFunction,ComponentPad*%
%ADD15FreePoly1,0.000000*%
%TD*%
%TA.AperFunction,ComponentPad*%
%ADD16C,1.700000*%
%TD*%
%TA.AperFunction,ComponentPad*%
%ADD17R,1.500000X1.500000*%
%TD*%
%TA.AperFunction,ComponentPad*%
%ADD18RoundRect,0.250000X-0.600000X-0.600000X0.600000X-0.600000X0.600000X0.600000X-0.600000X0.600000X0*%
%TD*%
%TA.AperFunction,ViaPad*%
%ADD19C,0.600000*%
%TD*%
%TA.AperFunction,Conductor*%
%ADD20C,0.670000*%
%TD*%
%TA.AperFunction,Conductor*%
%ADD21C,0.200000*%
%TD*%
G04 APERTURE END LIST*
D10*
%TO.P,J1,1,VIN*%
%TO.N,5V*%
X26060000Y-54225000D03*
D11*
%TO.P,J1,2,VIN*%
X30020000Y-54225000D03*
%TO.P,J1,3,GND*%
%TO.N,GND*%
X33980000Y-54225000D03*
%TO.P,J1,4,GND*%
X37940000Y-54225000D03*
%TD*%
D12*
%TO.P,A1,1,GPIO0*%
%TO.N,R0*%
X47225000Y-19220000D03*
D13*
%TO.P,A1,2,GPIO1*%
%TO.N,G0*%
X47225000Y-21760000D03*
D14*
%TO.P,A1,3,GND*%
%TO.N,GND*%
X47225000Y-24300000D03*
D13*
%TO.P,A1,4,GPIO2*%
%TO.N,B0*%
X47225000Y-26840000D03*
%TO.P,A1,5,GPIO3*%
%TO.N,R1*%
X47225000Y-29380000D03*
%TO.P,A1,6,GPIO4*%
%TO.N,G1*%
X47225000Y-31920000D03*
%TO.P,A1,7,GPIO5*%
%TO.N,B1*%
X47225000Y-34460000D03*
D14*
%TO.P,A1,8,GND*%
%TO.N,GND*%
X47225000Y-37000000D03*
D13*
%TO.P,A1,9,GPIO6*%
%TO.N,A*%
X47225000Y-39540000D03*
%TO.P,A1,10,GPIO7*%
%TO.N,B*%
X47225000Y-42080000D03*
%TO.P,A1,11,GPIO8*%
%TO.N,C*%
X47225000Y-44620000D03*
%TO.P,A1,12,GPIO9*%
%TO.N,D*%
X47225000Y-47160000D03*
D14*
%TO.P,A1,13,GND*%
%TO.N,GND*%
X47225000Y-49700000D03*
D13*
%TO.P,A1,14,GPIO10*%
%TO.N,E*%
X47225000Y-52240000D03*
%TO.P,A1,15,GPIO11*%
%TO.N,CLK*%
X47225000Y-54780000D03*
%TO.P,A1,16,GPIO12*%
%TO.N,LATCH*%
X47225000Y-57320000D03*
%TO.P,A1,17,GPIO13*%
%TO.N,OEN*%
X47225000Y-59860000D03*
D14*
%TO.P,A1,18,GND*%
%TO.N,GND*%
X47225000Y-62400000D03*
D13*
%TO.P,A1,19,GPIO14*%
%TO.N,MODESEL*%
X47225000Y-64940000D03*
%TO.P,A1,20,GPIO15*%
%TO.N,unconnected-(A1-GPIO15-Pad20)_1*%
X47225000Y-67480000D03*
%TO.P,A1,21,GPIO16*%
%TO.N,MISO*%
X65005000Y-67480000D03*
%TO.P,A1,22,GPIO17*%
%TO.N,CS*%
X65005000Y-64940000D03*
D15*
%TO.P,A1,23,GND*%
%TO.N,GND*%
X65005000Y-62400000D03*
D13*
%TO.P,A1,24,GPIO18*%
%TO.N,SCLK*%
X65005000Y-59860000D03*
%TO.P,A1,25,GPIO19*%
%TO.N,MOSI*%
X65005000Y-57320000D03*
%TO.P,A1,26,GPIO20*%
%TO.N,CD*%
X65005000Y-54780000D03*
%TO.P,A1,27,GPIO21*%
%TO.N,unconnected-(A1-GPIO21-Pad27)_1*%
X65005000Y-52240000D03*
D15*
%TO.P,A1,28,GND*%
%TO.N,GND*%
X65005000Y-49700000D03*
D13*
%TO.P,A1,29,GPIO22*%
%TO.N,unconnected-(A1-GPIO22-Pad29)_1*%
X65005000Y-47160000D03*
%TO.P,A1,30,RUN*%
%TO.N,unconnected-(A1-RUN-Pad30)*%
X65005000Y-44620000D03*
%TO.P,A1,31,GPIO26_ADC0*%
%TO.N,unconnected-(A1-GPIO26_ADC0-Pad31)*%
X65005000Y-42080000D03*
%TO.P,A1,32,GPIO27_ADC1*%
%TO.N,unconnected-(A1-GPIO27_ADC1-Pad32)_1*%
X65005000Y-39540000D03*
D15*
%TO.P,A1,33,AGND*%
%TO.N,unconnected-(A1-AGND-Pad33)_1*%
X65005000Y-37000000D03*
D13*
%TO.P,A1,34,GPIO28_ADC2*%
%TO.N,unconnected-(A1-GPIO28_ADC2-Pad34)_1*%
X65005000Y-34460000D03*
%TO.P,A1,35,ADC_VREF*%
%TO.N,unconnected-(A1-ADC_VREF-Pad35)*%
X65005000Y-31920000D03*
%TO.P,A1,36,3V3*%
%TO.N,3V3*%
X65005000Y-29380000D03*
%TO.P,A1,37,3V3_EN*%
%TO.N,unconnected-(A1-3V3_EN-Pad37)*%
X65005000Y-26840000D03*
D15*
%TO.P,A1,38,GND*%
%TO.N,GND*%
X65005000Y-24300000D03*
D13*
%TO.P,A1,39,VSYS*%
%TO.N,5V*%
X65005000Y-21760000D03*
%TO.P,A1,40,VBUS*%
%TO.N,unconnected-(A1-VBUS-Pad40)_1*%
X65005000Y-19220000D03*
%TD*%
D16*
%TO.P,SD1,1,3V3*%
%TO.N,3V3*%
X76475200Y-45649800D03*
%TO.P,SD1,2,CS*%
%TO.N,CS*%
X76475200Y-48189800D03*
%TO.P,SD1,3,MOSI*%
%TO.N,MOSI*%
X76475200Y-50729800D03*
%TO.P,SD1,4,CLK*%
%TO.N,SCLK*%
X76475200Y-53269800D03*
%TO.P,SD1,5,MISO*%
%TO.N,MISO*%
X76475200Y-55809800D03*
%TO.P,SD1,6,GND*%
%TO.N,GND*%
X76475200Y-58349800D03*
%TD*%
D17*
%TO.P,SW2,1,A*%
%TO.N,GND*%
X91460000Y-37000000D03*
D13*
%TO.P,SW2,2,B*%
%TO.N,MODESEL*%
X88920000Y-37000000D03*
%TO.P,SW2,3,C*%
%TO.N,unconnected-(SW2-C-Pad3)*%
X94000000Y-37000000D03*
%TD*%
D18*
%TO.P,H2,1,R0*%
%TO.N,R0*%
X32005000Y-23460000D03*
D16*
%TO.P,H2,2,G0*%
%TO.N,G0*%
X34545000Y-23460000D03*
%TO.P,H2,3,B0*%
%TO.N,B0*%
X32005000Y-26000000D03*
%TO.P,H2,4,GND*%
%TO.N,GND*%
X34545000Y-26000000D03*
%TO.P,H2,5,R1*%
%TO.N,R1*%
X32005000Y-28540000D03*
%TO.P,H2,6,G1*%
%TO.N,G1*%
X34545000Y-28540000D03*
%TO.P,H2,7,B1*%
%TO.N,B1*%
X32005000Y-31080000D03*
%TO.P,H2,8,E*%
%TO.N,E*%
X34545000Y-31080000D03*
%TO.P,H2,9,A*%
%TO.N,A*%
X32005000Y-33620000D03*
%TO.P,H2,10,B*%
%TO.N,B*%
X34545000Y-33620000D03*
%TO.P,H2,11,C*%
%TO.N,C*%
X32005000Y-36160000D03*
%TO.P,H2,12,D*%
%TO.N,D*%
X34545000Y-36160000D03*
%TO.P,H2,13,CLK*%
%TO.N,CLK*%
X32005000Y-38700000D03*
%TO.P,H2,14,OEN*%
%TO.N,LATCH*%
X34545000Y-38700000D03*
%TO.P,H2,15,OEN*%
%TO.N,OEN*%
X32005000Y-41240000D03*
%TO.P,H2,16,GND*%
%TO.N,GND*%
X34545000Y-41240000D03*
%TD*%
D19*
%TO.N,E*%
X43005000Y-38000000D03*
X43005000Y-46000000D03*
%TO.N,LATCH*%
X39005000Y-49000000D03*
X39005000Y-46000000D03*
%TD*%
D20*
%TO.N,GND*%
X33980000Y-54225000D02*
X37940000Y-54225000D01*
X43300000Y-49700000D02*
X47225000Y-49700000D01*
X53005000Y-60000000D02*
X48891238Y-60000000D01*
X57005000Y-53000000D02*
X56005000Y-52000000D01*
X50005000Y-49700000D02*
X47225000Y-49700000D01*
X56005000Y-54000000D02*
X57005000Y-53000000D01*
X37940000Y-54225000D02*
X38775000Y-54225000D01*
X50005000Y-37000000D02*
X50005000Y-24300000D01*
X50005000Y-37000000D02*
X50005000Y-49700000D01*
X53005000Y-54000000D02*
X53005000Y-60000000D01*
X48891238Y-60000000D02*
X48680000Y-60211238D01*
X47225000Y-37000000D02*
X40005000Y-37000000D01*
X59005000Y-52000000D02*
X59005000Y-50700000D01*
X47225000Y-24300000D02*
X50005000Y-24300000D01*
X35765000Y-41240000D02*
X34545000Y-41240000D01*
X53005000Y-52000000D02*
X52005000Y-53000000D01*
X56005000Y-52000000D02*
X54005000Y-52000000D01*
X91460000Y-34460000D02*
X91460000Y-37000000D01*
X50005000Y-24300000D02*
X65005000Y-24300000D01*
X38775000Y-54225000D02*
X43300000Y-49700000D01*
X55005000Y-49700000D02*
X50005000Y-49700000D01*
X40005000Y-37000000D02*
X35765000Y-41240000D01*
X52005000Y-53000000D02*
X53005000Y-54000000D01*
X65005000Y-62400000D02*
X63550000Y-60945000D01*
X60005000Y-53000000D02*
X59005000Y-52000000D01*
X60005000Y-56000000D02*
X60005000Y-53000000D01*
X48680000Y-60211238D02*
X48680000Y-60945000D01*
X81300000Y-24300000D02*
X91460000Y-34460000D01*
X58005000Y-49700000D02*
X55005000Y-49700000D01*
X54305000Y-49700000D02*
X53005000Y-51000000D01*
X36245000Y-24300000D02*
X47225000Y-24300000D01*
X63338762Y-60000000D02*
X59005000Y-60000000D01*
X59005000Y-57000000D02*
X60005000Y-56000000D01*
X47225000Y-37000000D02*
X50005000Y-37000000D01*
X59005000Y-60000000D02*
X59005000Y-57000000D01*
X59005000Y-50700000D02*
X58005000Y-49700000D01*
X59005000Y-60000000D02*
X57005000Y-60000000D01*
X65005000Y-49700000D02*
X58005000Y-49700000D01*
X57005000Y-57000000D02*
X55005000Y-57000000D01*
X53005000Y-51000000D02*
X53005000Y-52000000D01*
X65005000Y-24300000D02*
X81300000Y-24300000D01*
X55005000Y-57000000D02*
X55005000Y-60000000D01*
X53005000Y-54000000D02*
X56005000Y-54000000D01*
X55005000Y-60000000D02*
X53005000Y-60000000D01*
X65405000Y-62000000D02*
X65005000Y-62400000D01*
X63550000Y-60211238D02*
X63338762Y-60000000D01*
X57005000Y-60000000D02*
X57005000Y-57000000D01*
X55005000Y-49700000D02*
X54305000Y-49700000D01*
X34545000Y-26000000D02*
X36245000Y-24300000D01*
X63550000Y-60945000D02*
X63550000Y-60211238D01*
X48680000Y-60945000D02*
X47225000Y-62400000D01*
D21*
%TO.N,E*%
X43005000Y-38000000D02*
X43005000Y-46000000D01*
%TO.N,CS*%
X68060000Y-64940000D02*
X65005000Y-64940000D01*
X69000000Y-64000000D02*
X68060000Y-64940000D01*
X76475200Y-48189800D02*
X69000000Y-55665000D01*
X69000000Y-55665000D02*
X69000000Y-64000000D01*
D20*
%TO.N,5V*%
X70000000Y-17000000D02*
X70000000Y-19525000D01*
X67765000Y-21760000D02*
X65005000Y-21760000D01*
X70000000Y-19525000D02*
X67765000Y-21760000D01*
X26060000Y-54225000D02*
X30020000Y-54225000D01*
X26060000Y-54225000D02*
X26060000Y-18060000D01*
X27000000Y-17000000D02*
X70000000Y-17000000D01*
X26000000Y-18000000D02*
X27000000Y-17000000D01*
X26060000Y-18060000D02*
X26000000Y-18000000D01*
D21*
%TO.N,MISO*%
X70520000Y-67480000D02*
X65005000Y-67480000D01*
X75000000Y-63000000D02*
X70520000Y-67480000D01*
X76475200Y-55809800D02*
X75000000Y-57285000D01*
X75000000Y-57285000D02*
X75000000Y-63000000D01*
%TO.N,LATCH*%
X39005000Y-46000000D02*
X39005000Y-49000000D01*
%TD*%
M02*
