%TF.GenerationSoftware,KiCad,Pcbnew,9.0.8*%
%TF.CreationDate,2026-04-17T15:42:05-04:00*%
%TF.ProjectId,control_board_67,636f6e74-726f-46c5-9f62-6f6172645f36,2*%
%TF.SameCoordinates,Original*%
%TF.FileFunction,Soldermask,Top*%
%TF.FilePolarity,Negative*%
%FSLAX46Y46*%
G04 Gerber Fmt 4.6, Leading zero omitted, Abs format (unit mm)*
G04 Created by KiCad (PCBNEW 9.0.8) date 2026-04-17 15:42:05*
%MOMM*%
%LPD*%
G01*
G04 APERTURE LIST*
G04 Aperture macros list*
%AMRoundRect*
0 Rectangle with rounded corners*
0 $1 Rounding radius*
0 $2 $3 $4 $5 $6 $7 $8 $9 X,Y pos of 4 corners*
0 Add a 4 corners polygon primitive as box body*
4,1,4,$2,$3,$4,$5,$6,$7,$8,$9,$2,$3,0*
0 Add four circle primitives for the rounded corners*
1,1,$1+$1,$2,$3*
1,1,$1+$1,$4,$5*
1,1,$1+$1,$6,$7*
1,1,$1+$1,$8,$9*
0 Add four rect primitives between the rounded corners*
20,1,$1+$1,$2,$3,$4,$5,0*
20,1,$1+$1,$4,$5,$6,$7,0*
20,1,$1+$1,$6,$7,$8,$9,0*
20,1,$1+$1,$8,$9,$2,$3,0*%
%AMFreePoly0*
4,1,37,0.800000,0.796148,0.878414,0.796148,1.032228,0.765552,1.177117,0.705537,1.307515,0.618408,1.418408,0.507515,1.505537,0.377117,1.565552,0.232228,1.596148,0.078414,1.596148,-0.078414,1.565552,-0.232228,1.505537,-0.377117,1.418408,-0.507515,1.307515,-0.618408,1.177117,-0.705537,1.032228,-0.765552,0.878414,-0.796148,0.800000,-0.796148,0.800000,-0.800000,-1.400000,-0.800000,
-1.403843,-0.796157,-1.439018,-0.796157,-1.511114,-0.766294,-1.566294,-0.711114,-1.596157,-0.639018,-1.596157,-0.603843,-1.600000,-0.600000,-1.600000,0.600000,-1.596157,0.603843,-1.596157,0.639018,-1.566294,0.711114,-1.511114,0.766294,-1.439018,0.796157,-1.403843,0.796157,-1.400000,0.800000,0.800000,0.800000,0.800000,0.796148,0.800000,0.796148,$1*%
%AMFreePoly1*
4,1,37,1.403843,0.796157,1.439018,0.796157,1.511114,0.766294,1.566294,0.711114,1.596157,0.639018,1.596157,0.603843,1.600000,0.600000,1.600000,-0.600000,1.596157,-0.603843,1.596157,-0.639018,1.566294,-0.711114,1.511114,-0.766294,1.439018,-0.796157,1.403843,-0.796157,1.400000,-0.800000,-0.800000,-0.800000,-0.800000,-0.796148,-0.878414,-0.796148,-1.032228,-0.765552,-1.177117,-0.705537,
-1.307515,-0.618408,-1.418408,-0.507515,-1.505537,-0.377117,-1.565552,-0.232228,-1.596148,-0.078414,-1.596148,0.078414,-1.565552,0.232228,-1.505537,0.377117,-1.418408,0.507515,-1.307515,0.618408,-1.177117,0.705537,-1.032228,0.765552,-0.878414,0.796148,-0.800000,0.796148,-0.800000,0.800000,1.400000,0.800000,1.403843,0.796157,1.403843,0.796157,$1*%
%AMFreePoly2*
4,1,37,0.603843,0.796157,0.639018,0.796157,0.711114,0.766294,0.766294,0.711114,0.796157,0.639018,0.796157,0.603843,0.800000,0.600000,0.800000,-0.600000,0.796157,-0.603843,0.796157,-0.639018,0.766294,-0.711114,0.711114,-0.766294,0.639018,-0.796157,0.603843,-0.796157,0.600000,-0.800000,0.000000,-0.800000,0.000000,-0.796148,-0.078414,-0.796148,-0.232228,-0.765552,-0.377117,-0.705537,
-0.507515,-0.618408,-0.618408,-0.507515,-0.705537,-0.377117,-0.765552,-0.232228,-0.796148,-0.078414,-0.796148,0.078414,-0.765552,0.232228,-0.705537,0.377117,-0.618408,0.507515,-0.507515,0.618408,-0.377117,0.705537,-0.232228,0.765552,-0.078414,0.796148,0.000000,0.796148,0.000000,0.800000,0.600000,0.800000,0.603843,0.796157,0.603843,0.796157,$1*%
%AMFreePoly3*
4,1,37,0.000000,0.796148,0.078414,0.796148,0.232228,0.765552,0.377117,0.705537,0.507515,0.618408,0.618408,0.507515,0.705537,0.377117,0.765552,0.232228,0.796148,0.078414,0.796148,-0.078414,0.765552,-0.232228,0.705537,-0.377117,0.618408,-0.507515,0.507515,-0.618408,0.377117,-0.705537,0.232228,-0.765552,0.078414,-0.796148,0.000000,-0.796148,0.000000,-0.800000,-0.600000,-0.800000,
-0.603843,-0.796157,-0.639018,-0.796157,-0.711114,-0.766294,-0.766294,-0.711114,-0.796157,-0.639018,-0.796157,-0.603843,-0.800000,-0.600000,-0.800000,0.600000,-0.796157,0.603843,-0.796157,0.639018,-0.766294,0.711114,-0.711114,0.766294,-0.639018,0.796157,-0.603843,0.796157,-0.600000,0.800000,0.000000,0.800000,0.000000,0.796148,0.000000,0.796148,$1*%
G04 Aperture macros list end*
%ADD10RoundRect,0.250001X-1.099999X-1.099999X1.099999X-1.099999X1.099999X1.099999X-1.099999X1.099999X0*%
%ADD11C,2.700000*%
%ADD12C,2.200000*%
%ADD13C,1.850000*%
%ADD14FreePoly0,0.000000*%
%ADD15RoundRect,0.200000X-0.600000X-0.600000X0.600000X-0.600000X0.600000X0.600000X-0.600000X0.600000X0*%
%ADD16RoundRect,0.800000X-0.800000X-0.000010X0.800000X-0.000010X0.800000X0.000010X-0.800000X0.000010X0*%
%ADD17C,1.600000*%
%ADD18FreePoly1,0.000000*%
%ADD19FreePoly2,0.000000*%
%ADD20FreePoly3,0.000000*%
%ADD21C,1.700000*%
%ADD22R,1.500000X1.500000*%
%ADD23RoundRect,0.250000X-0.600000X-0.600000X0.600000X-0.600000X0.600000X0.600000X-0.600000X0.600000X0*%
%ADD24C,3.200000*%
G04 APERTURE END LIST*
D10*
%TO.C,J1*%
X26060000Y-54225000D03*
D11*
X30020000Y-54225000D03*
X33980000Y-54225000D03*
X37940000Y-54225000D03*
%TD*%
D12*
%TO.C,A1*%
X53390000Y-19350000D03*
D13*
X53690000Y-22380000D03*
X58540000Y-22380000D03*
D12*
X58840000Y-19350000D03*
D14*
X46425000Y-19220000D03*
D15*
X47225000Y-19220000D03*
D16*
X46425000Y-21760000D03*
D17*
X47225000Y-21760000D03*
D18*
X46425000Y-24300000D03*
D19*
X47225000Y-24300000D03*
D16*
X46425000Y-26840000D03*
D17*
X47225000Y-26840000D03*
D16*
X46425000Y-29380000D03*
D17*
X47225000Y-29380000D03*
D16*
X46425000Y-31920000D03*
D17*
X47225000Y-31920000D03*
D16*
X46425000Y-34460000D03*
D17*
X47225000Y-34460000D03*
D18*
X46425000Y-37000000D03*
D19*
X47225000Y-37000000D03*
D16*
X46425000Y-39540000D03*
D17*
X47225000Y-39540000D03*
D16*
X46425000Y-42080000D03*
D17*
X47225000Y-42080000D03*
D16*
X46425000Y-44620000D03*
D17*
X47225000Y-44620000D03*
D16*
X46425000Y-47160000D03*
D17*
X47225000Y-47160000D03*
D18*
X46425000Y-49700000D03*
D19*
X47225000Y-49700000D03*
D16*
X46425000Y-52240000D03*
D17*
X47225000Y-52240000D03*
D16*
X46425000Y-54780000D03*
D17*
X47225000Y-54780000D03*
D16*
X46425000Y-57320000D03*
D17*
X47225000Y-57320000D03*
D16*
X46425000Y-59860000D03*
D17*
X47225000Y-59860000D03*
D18*
X46425000Y-62400000D03*
D19*
X47225000Y-62400000D03*
D16*
X46425000Y-64940000D03*
D17*
X47225000Y-64940000D03*
D16*
X46425000Y-67480000D03*
D17*
X47225000Y-67480000D03*
X65005000Y-67480000D03*
D16*
X65805000Y-67480000D03*
D17*
X65005000Y-64940000D03*
D16*
X65805000Y-64940000D03*
D20*
X65005000Y-62400000D03*
D14*
X65805000Y-62400000D03*
D17*
X65005000Y-59860000D03*
D16*
X65805000Y-59860000D03*
D17*
X65005000Y-57320000D03*
D16*
X65805000Y-57320000D03*
D17*
X65005000Y-54780000D03*
D16*
X65805000Y-54780000D03*
D17*
X65005000Y-52240000D03*
D16*
X65805000Y-52240000D03*
D20*
X65005000Y-49700000D03*
D14*
X65805000Y-49700000D03*
D17*
X65005000Y-47160000D03*
D16*
X65805000Y-47160000D03*
D17*
X65005000Y-44620000D03*
D16*
X65805000Y-44620000D03*
D17*
X65005000Y-42080000D03*
D16*
X65805000Y-42080000D03*
D17*
X65005000Y-39540000D03*
D16*
X65805000Y-39540000D03*
D20*
X65005000Y-37000000D03*
D14*
X65805000Y-37000000D03*
D17*
X65005000Y-34460000D03*
D16*
X65805000Y-34460000D03*
D17*
X65005000Y-31920000D03*
D16*
X65805000Y-31920000D03*
D17*
X65005000Y-29380000D03*
D16*
X65805000Y-29380000D03*
D17*
X65005000Y-26840000D03*
D16*
X65805000Y-26840000D03*
D20*
X65005000Y-24300000D03*
D14*
X65805000Y-24300000D03*
D17*
X65005000Y-21760000D03*
D16*
X65805000Y-21760000D03*
D17*
X65005000Y-19220000D03*
D16*
X65805000Y-19220000D03*
%TD*%
D21*
%TO.C,SD1*%
X76475200Y-45649800D03*
X76475200Y-48189800D03*
X76475200Y-50729800D03*
X76475200Y-53269800D03*
X76475200Y-55809800D03*
X76475200Y-58349800D03*
%TD*%
D22*
%TO.C,SW2*%
X91460000Y-37000000D03*
D17*
X88920000Y-37000000D03*
X94000000Y-37000000D03*
%TD*%
D23*
%TO.C,H2*%
X32005000Y-23460000D03*
D21*
X34545000Y-23460000D03*
X32005000Y-26000000D03*
X34545000Y-26000000D03*
X32005000Y-28540000D03*
X34545000Y-28540000D03*
X32005000Y-31080000D03*
X34545000Y-31080000D03*
X32005000Y-33620000D03*
X34545000Y-33620000D03*
X32005000Y-36160000D03*
X34545000Y-36160000D03*
X32005000Y-38700000D03*
X34545000Y-38700000D03*
X32005000Y-41240000D03*
X34545000Y-41240000D03*
%TD*%
D24*
%TO.C,REF\u002A\u002A*%
X19005000Y-67000000D03*
%TD*%
%TO.C,REF\u002A\u002A*%
X96000000Y-20000000D03*
%TD*%
%TO.C,REF\u002A\u002A*%
X19005000Y-20000000D03*
%TD*%
%TO.C,REF\u002A\u002A*%
X96005000Y-67000000D03*
%TD*%
M02*
